# OBJ export from PMP
v -0.0609654188 0.1700211316 -0.0608393885
v -0.0650473684 0.1799914837 -0.0597585998
v -0.0547314584 0.1426722854 0.0289804805
v -0.0711353794 0.1381765604 0.0478539616
v 0.0178974494 0.0795165524 0.0527595282
v -0.0630566403 0.1434164941 -0.0074907700
v -0.0453344509 0.1289149374 0.0015819099
v -0.0720835999 0.1496555060 -0.0392658599
v -0.0745775476 0.1516404152 -0.0286479909
v -0.0843141600 0.1095726267 0.0037097300
v 0.0412588306 0.1036108136 0.0026760600
v -0.0601273403 0.1204139069 -0.0093791103
v 0.0327564701 0.0889691263 0.0422154516
v 0.0062723099 0.0999103710 -0.0222968906
v -0.0704132318 0.1412920058 -0.0084590800
v -0.0667136535 0.1535882354 -0.0490970984
v -0.0395198986 0.1738585532 -0.0075752600
v -0.0571805499 0.0409188308 0.0463013388
v -0.0432268307 0.0462635718 -0.0117717301
v -0.0735026002 0.1687193364 -0.0447917990
v -0.0590587594 0.1004125997 0.0427251309
v 0.0443265401 0.0908181220 0.0220975205
v -0.0564729497 0.1577840596 0.0081786504
v -0.0085369796 0.0999212191 -0.0243510697
v -0.0111836996 0.1644999981 -0.0161516909
v -0.0449930318 0.0390170105 -0.0210978296
v 0.0487491302 0.0452650003 0.0023023500
v -0.0095837200 0.1742610186 -0.0283907596
v -0.0009496400 0.1014111117 0.0442900695
v -0.0158154406 0.1750493795 -0.0186541602
v -0.0627631322 0.1377801150 0.0366785899
v 0.0203568097 0.0436623991 -0.0204562806
v -0.0218669698 0.0440229289 0.0532438010
v -0.0369962491 0.1689930111 0.0013256300
v -0.0393432118 0.0354401805 0.0424925610
v 0.0292077698 0.0474502482 -0.0085081803
v -0.0711129680 0.0627514720 0.0087995501
v -0.0008244800 0.0951651186 -0.0320563205
v -0.0668172315 0.1195152476 0.0514902212
v -0.0494226106 0.1428352445 0.0089728301
v -0.0827618614 0.1116234064 0.0442214608
v -0.0290095806 0.0512652881 -0.0221757796
v -0.0309846997 0.0381918997 0.0323900990
v -0.0348346010 0.0347214006 0.0345782004
v -0.0772088766 0.1071588695 0.0347382911
v 0.0094135897 0.1212190166 -0.0129377795
v -0.0713028312 0.1132536307 0.0494445302
v -0.0911887810 0.1158889309 0.0247055404
v 0.0569079816 0.0515781306 0.0072538299
v -0.0942435488 0.1220743209 0.0235684700
v -0.0743628070 0.0724370480 0.0314300396
v -0.0572196282 0.0570004694 0.0049175802
v -0.0670064017 0.0632928684 -0.0017493900
v 0.0528541617 0.0518986695 -0.0006207000
v -0.0264689401 0.0478164293 0.0493225902
v 0.0085287802 0.0348879993 0.0362651013
v -0.0133734299 0.0478924103 0.0478838496
v 0.0089808200 0.0376394019 0.0339008011
v 0.0429157913 0.0667077005 0.0269947201
v -0.0589999817 0.0737515464 0.0411970802
v 0.0267754607 0.0514234491 -0.0202340595
v 0.0607788004 0.0616465583 0.0104639903
v -0.0910036489 0.1488572508 0.0215070304
v -0.0636649728 0.0660478398 0.0318280794
v -0.0726525709 0.1656791866 -0.0182124805
v -0.0328000411 0.1594869941 0.0021962801
v 0.0568206199 0.0636911467 0.0252860896
v 0.0600935705 0.0656934530 0.0185333192
v -0.0337154083 0.1115156636 -0.0180784408
v -0.0628326014 0.0451827496 0.0346228890
v 0.0319093391 0.0646570474 -0.0184734091
v 0.0190765504 0.0918706208 -0.0248902291
v -0.0714483336 0.1810530126 -0.0554785505
v -0.0512433387 0.0642391965 0.0342580415
v -0.0544207208 0.0478365198 -0.0059186900
v -0.0880914479 0.0877415836 0.0048489901
v -0.0856321082 0.1246109381 -0.0027335801
v 0.0289483909 0.0391600206 0.0272348095
v 0.0215035100 0.1256398857 0.0212526191
v 0.0131969796 0.0348357894 0.0316309817
v -0.0078240000 0.1092411205 -0.0221856702
v -0.0841508284 0.1295501292 0.0504836999
v -0.0224137008 0.0832835212 0.0555907004
v -0.0902417004 0.1357599348 0.0141491601
v -0.0540190004 0.0333098993 0.0158479996
v -0.0010974400 0.0381478406 0.0204270091
v -0.0198757704 0.0516077094 0.0461420007
v -0.0265804995 0.0377425998 0.0157053005
v -0.0623119287 0.1637110859 -0.0406239890
v -0.0357116014 0.0358916000 0.0155028999
v -0.0298031997 0.0342869982 0.0163531005
v -0.0860615000 0.0799311027 0.0144407796
v 0.0490157194 0.0445736311 0.0206594504
v -0.0790037885 0.1285054982 0.0531493388
v -0.0490200706 0.1177129298 0.0315814316
v -0.0591297001 0.1503971219 0.0344895385
v -0.0656917915 0.1496181786 0.0381609797
v 0.0577446409 0.0641584396 0.0026277599
v 0.0009171400 0.0348033793 0.0156346895
v -0.0471042991 0.0355494991 0.0080803903
v -0.0724740103 0.0362559296 0.0015532600
v -0.0770255700 0.1139676273 -0.0046168100
v -0.0456759408 0.0337036401 0.0064300299
v 0.0365238786 0.0819917470 -0.0162295904
v -0.0002426400 0.0545360185 0.0546411984
v -0.0493499301 0.1491351873 0.0112740602
v -0.0374202207 0.0454284996 -0.0242267903
v 0.0355153903 0.0504495688 0.0314398296
v 0.0222529005 0.0365833007 0.0139797004
v -0.0852366164 0.1107735634 0.0245376695
v 0.0335738398 0.0585152619 0.0383109897
v -0.0790399611 0.1553744525 0.0151418103
v 0.0531240702 0.0590123795 -0.0028853801
v -0.0373144001 0.0336330011 0.0045724702
v 0.0239307508 0.0348167084 0.0177391600
v -0.0773827136 0.1534660012 0.0308949891
v -0.0495077707 0.1294949949 0.0302592702
v -0.0737480819 0.1553925276 0.0023491699
v 0.0049172002 0.0339970998 0.0091666104
v -0.0670783371 0.0338401012 -0.0061688302
v -0.0551397502 0.1105160117 -0.0176727399
v 0.0071935998 0.0988594666 0.0484195091
v -0.0910787284 0.1150603667 0.0401418097
v 0.0356060117 0.0365266390 0.0098155299
v -0.0593753606 0.1199823767 0.0405482389
v 0.0039677802 0.0342002101 0.0049754502
v -0.0380665995 0.0385186002 -0.0073079602
v -0.0263037197 0.1251887530 0.0173929799
v 0.0153227998 0.0362396985 0.0036628500
v 0.0163634699 0.0343947895 0.0022948601
v 0.0199681204 0.0348439887 -0.0018984900
v -0.0812214389 0.0810032487 0.0312558413
v -0.0926747024 0.1170194522 0.0118895201
v -0.0657397211 0.1556533873 0.0260176007
v 0.0038149201 0.0390244685 -0.0080827298
v -0.0278514698 0.0384043306 -0.0172104202
v 0.0192046296 0.0551665090 0.0477221496
v -0.0478719994 0.0341362990 -0.0154182501
v -0.0172707494 0.1869960129 -0.0199775696
v -0.0410915092 0.0340059996 -0.0119975396
v 0.0559573397 0.0531474091 0.0231977198
v 0.0104736397 0.0347426012 -0.0112628704
v -0.0430456288 0.1278512180 0.0168422591
v -0.0351991318 0.0338352099 -0.0205082893
v -0.0391855910 0.0630745292 0.0413828902
v 0.0283221994 0.1084795669 -0.0126233902
v -0.0424659811 0.0341891013 -0.0272606499
v -0.0568978898 0.0496555716 -0.0015319000
v -0.0139916101 0.1196257472 0.0362515412
v 0.0308357198 0.1155423373 -0.0031785499
v -0.0053486298 0.0338290110 -0.0226004291
v 0.0600786917 0.0681292564 0.0114545003
v 0.0328199305 0.1165562496 0.0044458602
v -0.0358748697 0.0347759984 -0.0308452006
v -0.0258099101 0.0888895914 -0.0350822508
v -0.0162575208 0.1603125036 -0.0096926000
v -0.0187721699 0.0898380429 -0.0369917117
v -0.0292419102 0.0904533565 0.0442366116
v -0.0546423607 0.1552296281 0.0126123996
v -0.0457520783 0.1634075344 -0.0081780497
v -0.0601135418 0.0355504416 0.0449075811
v -0.0378853902 0.1619971842 0.0002468600
v 0.0375529602 0.1068529114 0.0263034701
v -0.0786407292 0.1638723761 -0.0283877905
v -0.0308006499 0.0800684169 0.0417980701
v -0.0555226095 0.0819275975 -0.0213537905
v 0.0210697800 0.1249775589 0.0010998100
v -0.0272331908 0.0805709511 -0.0366206691
v 0.0173729006 0.1024603695 -0.0214876998
v -0.0004271000 0.0829473734 -0.0363806598
v -0.0888922587 0.0992091000 0.0095703201
v -0.0357498005 0.0772483498 -0.0193740204
v 0.0437853597 0.0488036983 0.0313434191
v 0.0217473209 0.1211845577 0.0308788102
v 0.0540164895 0.0728838518 0.0186780095
v -0.0703257993 0.0633677691 0.0198091809
v -0.0158583503 0.0811655521 -0.0391855910
v 0.0258217994 0.0463266112 0.0382772312
v -0.0604835786 0.1556797475 0.0043343799
v -0.0490008406 0.0862216800 0.0453520417
v -0.0656098798 0.0758600086 -0.0167500600
v 0.0086784400 0.1289457381 0.0261568800
v 0.0150482096 0.0457558408 0.0437938683
v -0.0594666712 0.1474395543 -0.0018885400
v -0.0477436297 0.1206443235 -0.0128129898
v 0.0482068509 0.0726985782 0.0169946309
v -0.0769873410 0.1536937505 -0.0022970799
v 0.0009683600 0.1306430250 0.0025865899
v 0.0303003900 0.1155364513 0.0286850091
v 0.0237800702 0.0952229425 0.0463473313
v -0.0666348785 0.0404303111 -0.0050180699
v -0.0752726495 0.1268009841 -0.0080241701
v -0.0647604316 0.1531158835 -0.0020371201
v -0.0667270198 0.0358957686 0.0338494293
v -0.0775871798 0.1771787554 -0.0502210893
v -0.0773884133 0.1465642601 -0.0043543000
v 0.0072129602 0.1272195727 -0.0052073700
v -0.0526254401 0.0504346192 0.0290467404
v -0.0516734608 0.0668506622 -0.0121203503
v -0.0523898192 0.0454491302 0.0176863000
v -0.0198189206 0.1650949419 -0.0176089797
v -0.0042439401 0.1291490197 0.0258292295
v 0.0485126711 0.0717981830 0.0060005002
v -0.0641608089 0.0359007716 0.0176875703
v 0.0504000112 0.0672924817 0.0268514697
v -0.0290472005 0.1255633831 0.0077617699
v -0.0902057216 0.1494777501 0.0130350897
v -0.0391796790 0.0424067415 0.0414760709
v -0.0223619696 0.0982076079 0.0447659418
v -0.0539930388 0.1449865550 -0.0011093400
v -0.0235743094 0.0370369107 0.0541447513
v -0.0289509408 0.0392859392 0.0533090904
v -0.0666428506 0.1604087502 -0.0568426810
v -0.0012188700 0.0962017477 0.0538159087
v -0.0699973181 0.0420730785 0.0066897799
v -0.0144669097 0.0631360188 -0.0368658714
v 0.0384633988 0.0549348183 -0.0061822501
v 0.0166884605 0.0369765982 0.0430006012
v -0.0609023608 0.0434295014 0.0426785313
v -0.0739453733 0.0843748823 -0.0151544902
v -0.0464712307 0.0513043404 -0.0098299803
v -0.0900093392 0.1327808201 0.0059220600
v 0.0199724901 0.0544097088 -0.0271082297
v -0.0721450374 0.0915564522 0.0414947793
v -0.0497544184 0.0497382991 0.0370371118
v -0.0577131100 0.0487178192 0.0072765099
v -0.0328755192 0.0516776294 -0.0108886501
v 0.0410732590 0.0887243226 -0.0097879404
v 0.0436731800 0.0501622297 -0.0059843501
v -0.0294283200 0.0931666195 -0.0249318592
v -0.0307701807 0.1159731299 0.0328588001
v -0.0859187692 0.1426341236 0.0398498103
v -0.0887637287 0.1194493771 0.0465600900
v -0.0032479200 0.0757106915 0.0587146394
v -0.0110967699 0.1820232421 -0.0280424505
v -0.0212008394 0.0466570891 -0.0279513206
v -0.0784364566 0.1392801255 0.0483293608
v -0.0829428136 0.0932916999 -0.0061856299
v 0.0037308901 0.0481279902 -0.0290259700
v -0.0693824068 0.1086578667 0.0375077985
v -0.0414608307 0.0985447988 0.0417786203
v 0.0077389800 0.1314750016 0.0116829704
v -0.0926542804 0.1208402514 0.0416296497
v -0.0280542392 0.0545510314 0.0367868505
v -0.0776188299 0.0739991292 -0.0053263502
v -0.0882062316 0.0944857001 0.0237440094
v -0.0152410902 0.0918217227 0.0558172315
v -0.0514585488 0.0558781512 0.0159003492
v -0.0837404802 0.0772402734 0.0046673301
v 0.0315554291 0.0924847275 -0.0182042792
v -0.0649921522 0.0845509022 0.0441200584
v -0.0157159008 0.0608229712 0.0523654409
v -0.0548133217 0.0981024802 -0.0214253701
v -0.0474018194 0.0755503401 0.0426301397
v 0.0120092202 0.0359618999 -0.0217357501
v 0.0008090500 0.1163331866 0.0401675589
v -0.0283987001 0.1807065010 -0.0078469496
v 0.0564552508 0.0699514896 0.0049191699
v 0.0035078200 0.0863395184 0.0570483208
v -0.0507928617 0.1271648705 -0.0048183198
v -0.0328217112 0.1230050027 -0.0059088301
v 0.0344001800 0.1050300002 -0.0102249198
f 248 176 52
f 27 49 93
f 107 42 236
f 88 127 136
f 9 213 8
f 33 211 57
f 142 144 151
f 144 142 136
f 243 63 84
f 13 189 190
f 105 137 5
f 175 67 68
f 139 17 257
f 178 111 137
f 233 82 243
f 91 90 103
f 132 224 45
f 91 103 114
f 106 162 159
f 248 52 226
f 104 228 203
f 136 127 144
f 131 130 255
f 198 200 70
f 173 67 205
f 213 20 2
f 44 161 85
f 197 206 188
f 66 106 40
f 103 90 100
f 218 211 56
f 151 144 154
f 244 165 145
f 218 57 211
f 123 233 243
f 144 127 140
f 178 137 183
f 144 147 154
f 66 162 106
f 11 163 22
f 2 1 213
f 127 114 140
f 25 162 156
f 50 84 222
f 206 242 188
f 67 141 68
f 201 25 156
f 114 103 140
f 103 138 140
f 144 140 147
f 40 156 66
f 210 156 40
f 100 85 103
f 143 95 231
f 147 140 138
f 10 102 238
f 156 162 66
f 131 115 130
f 65 195 164
f 49 98 62
f 108 111 178
f 64 74 60
f 186 22 59
f 174 182 202
f 85 161 204
f 204 161 194
f 142 130 126
f 167 150 46
f 48 50 133
f 110 133 10
f 7 210 143
f 29 174 256
f 213 9 20
f 250 228 104
f 226 148 215
f 232 63 243
f 64 60 51
f 65 179 193
f 248 64 176
f 8 15 9
f 85 204 120
f 85 120 103
f 18 219 161
f 176 64 51
f 126 119 99
f 12 192 6
f 124 131 27
f 58 86 80
f 104 72 250
f 33 55 212
f 25 28 235
f 16 8 213
f 200 248 226
f 65 193 73
f 89 193 6
f 105 5 234
f 259 234 5
f 138 103 120
f 94 82 233
f 97 116 237
f 178 78 108
f 223 71 61
f 149 231 241
f 173 205 108
f 109 80 119
f 211 33 212
f 204 101 120
f 47 39 94
f 133 50 222
f 38 14 72
f 78 173 108
f 164 195 20
f 249 92 76
f 19 26 138
f 13 163 189
f 258 113 203
f 80 86 99
f 52 176 37
f 185 121 12
f 80 99 119
f 87 244 55
f 228 11 186
f 255 142 151
f 176 51 92
f 226 52 148
f 240 47 45
f 94 4 237
f 59 111 108
f 230 24 155
f 217 71 104
f 57 218 183
f 238 76 171
f 211 212 35
f 237 4 97
f 52 37 53
f 165 158 254
f 215 200 226
f 47 41 45
f 246 76 92
f 37 176 92
f 156 210 201
f 91 44 90
f 195 73 2
f 223 104 71
f 11 228 262
f 93 124 27
f 242 202 182
f 251 132 51
f 53 37 249
f 24 14 38
f 59 205 175
f 255 32 131
f 187 9 196
f 54 98 49
f 211 44 56
f 70 200 204
f 98 258 152
f 84 187 222
f 213 1 89
f 104 203 217
f 92 51 132
f 32 36 131
f 245 53 249
f 249 37 92
f 78 218 115
f 86 88 135
f 86 43 88
f 233 41 47
f 84 207 187
f 194 161 219
f 198 225 74
f 117 143 3
f 89 16 213
f 124 78 115
f 209 149 241
f 61 36 32
f 41 123 45
f 22 163 13
f 33 87 55
f 132 45 246
f 123 41 233
f 34 162 257
f 189 174 122
f 61 71 36
f 149 202 128
f 106 96 3
f 224 21 240
f 115 109 130
f 71 217 36
f 132 246 92
f 257 17 23
f 197 46 81
f 235 30 25
f 15 196 9
f 48 45 123
f 135 88 136
f 187 196 222
f 241 231 95
f 135 136 142
f 95 117 125
f 68 152 175
f 93 49 141
f 130 142 255
f 141 62 68
f 110 45 48
f 30 139 162
f 40 3 143
f 3 40 106
f 93 173 78
f 135 126 86
f 184 210 6
f 11 22 186
f 7 261 260
f 21 224 251
f 218 80 115
f 110 48 133
f 259 190 214
f 129 130 109
f 124 115 131
f 49 62 141
f 129 119 126
f 11 189 163
f 131 229 27
f 185 69 121
f 111 13 137
f 9 187 164
f 2 89 1
f 2 73 89
f 258 175 152
f 211 35 44
f 115 80 109
f 171 10 238
f 259 247 234
f 179 65 118
f 186 175 258
f 6 8 16
f 215 191 101
f 251 51 60
f 139 257 162
f 33 57 87
f 58 80 56
f 93 78 124
f 202 206 128
f 83 234 247
f 80 218 56
f 150 146 46
f 187 112 118
f 102 192 12
f 252 234 83
f 128 231 149
f 168 155 157
f 186 59 175
f 169 262 250
f 169 14 146
f 13 190 5
f 236 42 168
f 57 105 252
f 203 186 258
f 171 110 10
f 63 112 187
f 203 228 186
f 95 240 21
f 70 204 194
f 167 197 242
f 177 168 157
f 247 158 83
f 137 13 5
f 168 177 216
f 262 146 150
f 206 7 128
f 35 212 208
f 247 259 214
f 120 101 191
f 181 166 172
f 107 236 154
f 112 116 134
f 46 146 14
f 50 243 84
f 168 216 236
f 235 28 201
f 134 97 96
f 138 191 19
f 60 254 251
f 251 180 21
f 42 227 172
f 242 206 202
f 181 199 53
f 23 179 159
f 125 117 3
f 260 261 185
f 245 249 76
f 214 122 29
f 245 181 53
f 197 81 69
f 129 126 130
f 134 116 97
f 7 143 128
f 147 138 26
f 179 134 159
f 239 236 216
f 62 152 68
f 112 63 116
f 6 16 89
f 96 106 159
f 251 224 132
f 54 113 98
f 60 74 254
f 154 147 107
f 26 107 147
f 43 44 91
f 235 160 139
f 216 177 170
f 88 43 91
f 253 220 102
f 102 10 77
f 158 241 254
f 42 172 168
f 205 59 108
f 208 18 161
f 24 81 14
f 29 256 209
f 219 18 225
f 138 120 191
f 128 143 231
f 219 70 194
f 170 177 157
f 187 118 65
f 118 112 134
f 121 102 12
f 179 184 6
f 191 148 75
f 157 38 170
f 149 256 174
f 199 172 221
f 216 170 223
f 19 107 26
f 239 216 223
f 188 242 197
f 172 166 230
f 11 153 189
f 179 118 134
f 81 46 14
f 180 241 21
f 187 207 63
f 192 15 6
f 117 95 143
f 19 227 42
f 3 96 31
f 116 63 232
f 5 190 259
f 255 151 236
f 75 221 19
f 261 7 206
f 89 73 193
f 32 236 239
f 137 105 183
f 240 95 125
f 58 43 86
f 204 215 101
f 184 160 210
f 245 76 238
f 153 79 189
f 11 150 153
f 82 237 232
f 229 54 27
f 180 251 254
f 206 197 261
f 123 50 48
f 95 21 241
f 159 134 96
f 79 174 189
f 209 241 158
f 96 97 31
f 145 165 254
f 240 125 47
f 27 54 49
f 151 154 236
f 32 239 223
f 79 182 174
f 125 3 31
f 254 74 145
f 150 167 153
f 6 193 179
f 17 160 179
f 24 230 69
f 255 236 32
f 72 170 38
f 153 167 79
f 125 39 47
f 172 230 168
f 223 170 104
f 183 218 178
f 123 243 50
f 22 13 59
f 57 183 105
f 126 99 86
f 169 72 14
f 125 31 39
f 162 25 30
f 93 141 173
f 2 20 195
f 202 149 174
f 191 215 148
f 167 242 79
f 246 171 76
f 87 57 252
f 139 30 235
f 29 247 214
f 244 87 252
f 253 102 121
f 173 141 67
f 242 182 79
f 61 32 223
f 133 222 77
f 209 247 29
f 244 208 55
f 230 253 69
f 10 133 77
f 63 207 84
f 59 13 111
f 34 23 159
f 18 208 225
f 252 105 234
f 113 258 98
f 199 221 75
f 160 235 210
f 90 44 85
f 35 161 44
f 246 110 171
f 200 198 248
f 83 158 165
f 244 252 165
f 9 164 20
f 53 199 52
f 201 210 235
f 167 46 197
f 65 73 195
f 221 172 227
f 4 31 97
f 190 122 214
f 165 252 83
f 229 131 36
f 6 210 260
f 38 157 155
f 69 253 121
f 19 42 107
f 181 220 166
f 166 253 230
f 24 69 81
f 201 28 25
f 65 164 187
f 230 155 168
f 204 200 215
f 39 31 4
f 94 237 82
f 75 148 199
f 166 220 253
f 260 185 12
f 82 232 243
f 24 38 155
f 169 250 72
f 62 98 152
f 221 227 19
f 208 244 225
f 12 6 260
f 257 23 34
f 94 39 4
f 77 196 192
f 218 78 178
f 209 158 247
f 146 262 169
f 172 199 181
f 74 64 248
f 245 238 220
f 229 36 217
f 245 220 181
f 256 149 209
f 198 74 248
f 232 237 116
f 179 160 184
f 34 159 162
f 8 6 15
f 262 228 250
f 19 191 75
f 229 217 113
f 192 196 15
f 47 94 233
f 224 240 45
f 229 113 54
f 102 77 192
f 35 208 161
f 70 219 225
f 55 208 212
f 238 102 220
f 179 23 17
f 180 254 241
f 142 126 135
f 74 225 145
f 189 122 190
f 261 69 185
f 122 174 29
f 170 72 104
f 261 197 69
f 244 145 225
f 70 225 198
f 67 175 205
f 148 52 199
f 246 45 110
f 17 139 160
f 210 40 143
f 210 7 260
f 196 77 222
f 11 262 150
f 113 217 203
