# OBJ export from PMP
v 27.5632991791 4.1968002319 15.0808000565
v -16.6592998505 6.7902998924 9.0583000183
v -33.3759002686 -0.9700000286 -0.9437999725
v -32.6692008972 -7.2238998413 6.5555000305
v -26.2348995209 -10.7778997421 6.7568001747
v -30.8239994049 4.7692999840 5.0900998116
v -8.1984996796 -24.1168003082 -5.0947999954
v -9.9218997955 7.4084000587 2.6652998924
v -37.4188995361 4.2030000687 -1.5908000469
v -20.2339000702 7.1031999588 6.1347999573
v -7.7939000130 0.1184000000 2.8931000233
v -27.3822994232 -13.4546003342 2.0736000538
v -34.7741012573 -7.6511001587 5.0036997795
v -11.5452003479 -10.2300996780 13.7845001221
v -16.7169990540 -5.2109999657 12.9724998474
v -13.5564002991 -0.1036999971 8.3032999039
v -10.3718004227 -16.2262992859 10.8580999374
v -21.8069000244 -1.4201999903 8.8935003281
v -11.9282999039 -10.1833000183 6.0356001854
v 1.9340000153 -21.9351005554 -5.8554000854
v 27.5662994385 1.1607999802 14.7379999161
v 27.5653991699 -5.6613998413 15.0663995743
v -16.5811004639 -12.7976999283 5.3884000778
v -10.9609003067 -11.9851999283 14.3558998108
v -27.1334991455 12.1386003494 2.2667000294
v -27.0258007050 -12.1591997147 9.3478002548
v -33.9950981140 -6.3436999321 6.2424998283
v 7.5935997963 11.9989004135 1.5090999603
v -8.4182996750 -25.3001003265 -4.5794000626
v -12.8431997299 -9.0601997375 10.8034000397
v -17.2742996216 -2.2327001095 5.1352000237
v -8.7953996658 13.3958997726 8.6038999557
v -11.0572004318 14.2734003067 6.3435001373
v 27.3491992950 8.8219995499 1.1888999939
v -36.4922981262 -14.2565002441 -0.9749000072
v -18.0412998199 3.9360001087 2.4419000149
v -32.6927986145 5.0503997803 -2.5522999763
v -35.3217010498 -12.5644998550 0.3977999985
v -30.5436992645 8.7164001465 -5.4590001106
v 11.3593997955 -14.4309997559 12.7342996597
v -32.3576011658 -14.5687999725 -1.0647000074
v 27.5324001312 8.5642004013 0.9524999857
v -33.7742996216 -13.5288000107 5.0862002373
v -6.7231998444 -29.4596004486 -8.9500999451
v -27.4713001251 7.5836000443 -3.9656999111
v -30.0009002686 -8.1490001678 6.6904001236
v 27.5548992157 7.1244997978 14.1777000427
v 4.0756001472 5.4335999489 -0.1712999940
v -27.2914009094 2.4546999931 -0.7383000255
v -11.7200002670 7.7589998245 4.3502998352
v -19.9391002655 6.8551998138 7.8319997787
v -31.1091995239 8.3930997849 -1.5269000530
v -19.1488990784 -3.7857999802 4.0177998543
v 27.5293006897 -8.2581996918 15.4188003540
v -31.0942993164 11.5853996277 -4.7600998878
v 2.4895999432 -27.6336002350 -1.8973000050
v -39.1068000793 -5.8892998695 -4.7674999237
v -35.3790016174 -12.7351999283 2.7774000168
v -6.0485000610 -11.6358995438 15.1231002808
v -20.0575008392 -16.8332996368 7.0033998489
v -31.9873008728 -8.7447996140 1.2925000191
v 27.5324001312 8.3374004364 0.7530000210
v -35.2402000427 -0.7494999766 -0.7315999866
v -20.5760002136 6.2779998779 8.6275997162
v -27.2549991608 11.3346004486 2.6013000011
v -7.0173997879 -23.4871006012 -3.8791999817
v -10.3577003479 6.5194001198 3.1712000370
v 4.4861001968 -2.9995000362 0.9994000196
v 9.3702001572 -17.5984001160 9.9621000290
v -9.2496004105 -25.4720001221 -6.5556998253
v 21.9824008942 -10.3283996582 0.3634000123
v -18.7537002563 -13.3296003342 5.0700001717
v -28.8722000122 -14.5687999725 9.3723001480
v -34.3152008057 -17.1403007507 4.2087001801
v 1.0205999613 -0.6431999803 16.2315998077
v -7.9639000893 -28.1630001068 -9.4730997086
v -9.0146999359 3.9870998859 2.3659000397
v -10.3699998856 -16.2056999207 9.1837997437
v 11.9839000702 -1.4965000153 -0.7056000233
v -27.4552993774 4.0686998367 -0.7523999810
v 3.4435000420 -16.3661003113 10.8579998016
v 14.2678003311 -9.0928001404 -2.2198998928
v -17.6602993011 -9.8311004639 10.5951004028
v 27.5634002686 9.3919000626 11.1103000641
v -38.2458000183 1.2453000546 -1.2480000257
v 27.5275993347 -4.5904998779 16.4748992920
v -19.9703998566 14.6139001846 3.4542000294
v -5.9956998825 -22.0666999817 -4.8126001358
v -3.0629999638 -14.2777996063 4.7497000694
v -40.1250000000 -5.2393999100 -4.5069999695
v -9.8982000351 -9.2108001709 14.3643999100
v -31.6737003326 8.7384004593 -5.0004000664
v 1.7778999805 -13.0534000397 0.6650999784
v -16.0848999023 8.7469997406 2.1612999439
v -1.9220999479 -24.5072994232 -8.9904003143
v -36.4695014954 3.3150000572 -4.3390998840
v 27.5324001312 8.1058998108 0.5649999976
v -30.1972007751 -7.3171000481 0.6317999959
v -11.5389995575 8.5040998459 8.1541996002
v -28.1756992340 -0.2290000021 1.1452000141
v -27.0928001404 -2.0202000141 7.0801000595
v -9.4200000763 -0.8485000134 3.6115000248
v 1.7017999887 -18.7224006653 -1.2527999878
v -28.9258995056 -15.8798999786 8.8887996674
v 2.3717000484 -18.3062992096 2.8403999805
v -29.3131999969 12.5746002197 -1.4025000334
v -21.8418998718 -1.1095000505 7.3041000366
v 21.2982006073 -8.6035003662 15.0604000092
v -0.8307999969 12.2009000778 10.1444997787
v -29.9916992188 -13.5422000885 0.2734000087
v 9.1711997986 -2.6442999840 -0.2824999988
v -36.9362983704 -13.6682996750 -0.0278999992
v -25.7900009155 1.4874000549 7.3361001015
v -3.5599999428 -13.0993995667 4.1284999847
v -29.4204006195 6.1370000839 1.3200000525
v -15.9991998672 -2.8550000191 12.6808004379
v -35.9553985596 4.7771000862 -0.6186000109
v -23.2059001923 12.7852001190 -1.4160000086
v 3.5244998932 -21.9563999176 4.6606998444
v -5.5213999748 -21.8551006317 -6.3221998215
v 15.8943004608 -18.3689994812 3.5559000969
v -38.3587989807 -7.3776998520 -4.5880999565
v -20.8141994476 5.1705999374 9.4603004456
v -18.3078994751 -12.2068996429 5.3583002090
v 6.9675998688 -23.5853996277 4.5439000130
v -15.2433996201 3.7920000553 11.3029003143
v -15.9720001221 -3.9465999603 13.1904001236
v -29.8976001740 -13.3875999451 8.5914001465
v 23.0372009277 -12.1082000732 12.3670997620
v -11.0564002991 8.8970003128 1.9435000420
v -15.3845996857 11.7114000320 0.9872999787
v -1.9111000299 -20.6886005402 -2.0803000927
v -31.2231998444 -2.0288000107 3.2497999668
v 27.3502006531 7.9064998627 0.4194999933
v 2.4586999416 -17.8698005676 1.9371000528
v -4.7933998108 -28.0119991302 -9.6003999710
v -27.7038993835 -12.3570003510 2.4558999538
v -36.8033981323 -13.3131999969 1.7288999557
v -24.4001007080 13.4507999420 3.2500000000
v -21.9685001373 10.1641998291 -1.5196000338
v -27.4335002899 12.0878000259 -4.4437999725
v -11.1326999664 6.9147000313 4.1152000427
v 27.5303993225 -9.9631996155 14.4540996552
v -14.0129995346 -8.3361997604 8.2314996719
v 1.8273999691 -9.8294000626 0.4460000098
v -30.4804000854 -15.2237997055 -0.2206999958
v -5.7611999512 -24.7071990967 -9.8648996353
v 2.4182999134 11.7157001495 1.4515999556
v -19.8092994690 12.5633001328 6.8924999237
v -13.4259996414 -8.5453996658 9.2806997299
v -12.1443996429 4.7736001015 2.8750998974
v 2.3331000805 -27.6644001007 -3.3315999508
v -19.6921005249 4.2238998413 10.1226997375
v -28.3120994568 -11.7651996613 2.8680999279
v 27.5263004303 6.3607997894 14.7753000259
v -36.2146987915 -14.9692001343 -1.2687000036
v -30.7395000458 -5.2062997818 -0.1615000069
v -31.2040004730 -4.3076000214 -0.1913000047
v -38.9407005310 -4.0678000450 -3.7734999657
v 27.5314998627 10.4155998230 3.4944999218
v -27.6774997711 -11.2398004532 7.4116997719
v -13.1616001129 1.5300999880 11.4626998901
v -22.0167999268 -2.0083999634 9.8812999725
v 23.3339996338 -13.6611995697 4.1345000267
v 27.5263996124 7.2234001160 14.2609996796
v -18.1643009186 -15.0649995804 5.6210999489
v -22.1737003326 -2.8334000111 10.6617002487
v -26.7341003418 -13.6667995453 10.2708997726
v -31.8437995911 8.2847003937 -4.3736000061
v 5.3178000450 -16.2381992340 -1.4419000149
v -36.5751991272 -17.2984008789 0.1405999959
v -11.2989997864 10.3912000656 1.3734999895
v -30.2154998779 -16.3922996521 0.3481000066
v 22.8173999786 -14.5057001114 7.1694002151
v -6.2614002228 -27.9584007263 -10.0064001083
v 0.0247000009 -15.8080997467 5.2544999123
v -8.9618997574 -28.7376003265 -7.8038997650
v -22.7187004089 -4.5830001831 11.1836004257
v -33.9300003052 -5.3249001503 -2.6561000347
v -38.4910011292 -5.0967001915 1.8011000156
v 2.2107999325 8.8747997284 0.2401999980
v 3.0673000813 -11.6024999619 -0.5037999749
v -40.9219017029 -4.5155000687 -1.4986000061
v 21.6331996918 11.3114004135 5.1665000916
v -1.9373999834 -15.3879003525 5.7090997696
v 14.1883001328 -19.3148002625 6.0809001923
v -35.7701988220 -6.5100002289 4.8618998528
v -40.8027992249 -4.6357998848 -3.6370000839
v 27.5265007019 7.4994997978 14.0761995316
v -25.0741004944 10.4623003006 4.2838997841
v 3.3462998867 -4.9326000214 1.3008999825
v -8.9457998276 -8.1042003632 14.8486003876
v -7.0890998840 -7.9696002007 15.3147001266
v -31.7248992920 -11.6674995422 1.8605999947
v -16.5275001526 9.5108003616 1.2987999916
v -15.6710996628 2.9712998867 11.0299997330
v -19.6051998138 5.5543999672 2.5992999077
v 3.4154999256 -15.9909000397 0.4363000095
v -9.2173995972 -28.1327991486 -6.2059001923
v -41.7676010132 -5.7796998024 -3.3341999054
v -11.4673995972 -0.5820000172 4.5562000275
v -19.5835990906 -1.5480999947 5.8425998688
v -12.1796998978 7.5573000908 10.1155996323
v -20.1564998627 11.2371997833 6.8656001091
v 10.9911003113 -22.1592006683 5.2091999054
v 27.5289001465 11.1742000580 8.1014995575
v -14.0176000595 5.1047000885 11.5408000946
v -7.2873001099 5.9348001480 13.9221000671
v -31.9165000916 -3.2760999203 0.1503999978
v 0.0546999983 -28.2644004822 -2.4681000710
v -12.6623001099 -7.4552001953 13.4876003265
v -8.0741996765 -27.5181007385 -4.5170998573
v -32.0532989502 -2.6558001041 0.9786999822
v -11.1386003494 7.0588002205 11.7334995270
v -32.8265991211 1.3612999916 -3.8938000202
v -37.4401016235 -3.0092999935 -0.4417999983
v 4.7768001556 -9.8568000793 -1.2932000160
v -14.1311998367 -2.2123999596 5.2132000923
v -26.3983993530 11.3367004395 -4.5858001709
v -7.8003001213 -29.1492996216 -8.9905004501
v -28.2087001801 7.1844000816 -1.1900000572
v -1.7443000078 5.9801001549 14.3718996048
v -34.6763000488 -3.8601999283 5.0932998657
v -24.1804008484 13.8774995804 1.9851000309
v 12.8517999649 8.4184999466 -0.8073999882
v 27.5321006775 -11.7543001175 12.8261003494
v 7.3442997932 -16.8376998901 -2.5122001171
v -18.8778991699 -16.2192001343 6.3944997787
v -19.2682991028 -14.1092996597 12.9924001694
v -23.2544002533 4.8513998985 0.8291000128
v -2.7193000317 -28.2434997559 -7.7423000336
v 1.9769999981 -25.9395999908 -6.1497998238
v -25.0904998779 12.2600002289 4.0184001923
v -33.7694015503 -15.1135997772 -1.4502999783
v 19.1760005951 -15.6283998489 3.7520999908
v 16.3430995941 3.9565000534 -1.5305999517
v 23.5387001038 3.3466999531 -0.6373999715
v -7.5093998909 -24.2835998535 -8.8628997803
v -22.5753993988 8.9883003235 -1.2862000465
v -25.1156005859 7.6698999405 -2.2118000984
v 24.2429008484 6.3077998161 0.3070999980
v 16.4915008545 -17.1828994751 7.3256998062
v -18.0284996033 -10.0930995941 7.3901000023
v -30.4074993134 3.5755999088 5.9566998482
v -33.3061981201 -0.5976999998 1.0078999996
v 27.5293006897 -9.4326000214 -0.0408999994
v 22.2248992920 3.7393000126 -0.4327000082
v -9.7143001556 6.1805000305 13.0806999207
v 3.6472001076 -19.6063995361 5.4998998642
v -13.3878002167 5.4906997681 3.1282999516
v -21.0356998444 -14.9516000748 12.2402000427
v -1.9105000496 -26.4260997772 -8.8353004456
v 8.5291996002 -24.2122993469 3.0518999100
v -8.3833999634 -29.3586997986 -7.9492998123
v -36.7638015747 -17.1331005096 2.0376999378
v -33.3438987732 -4.9194998741 6.6140999794
v -10.8824996948 7.7746000290 3.1208999157
v 23.3927993774 -12.2136001587 2.1429998875
v -36.8801994324 -16.6926002502 -0.2773999870
v -33.3666000366 -2.6206998825 4.2765002251
v -19.3773994446 14.5457000732 4.8656001091
v -37.2680015564 -0.2125000060 -2.2095000744
v -11.9498996735 -7.8064999580 5.5721001625
v -36.2841987610 -7.2554998398 -3.9488000870
v -35.0163993835 -13.8984003067 -1.3183000088
v -40.6409988403 -7.9629001617 -4.0869002342
v -6.0843000412 6.6050000191 1.3832000494
v -16.3861999512 10.4202003479 0.8758000135
v -9.2726001740 -27.5865001678 -7.9310998917
v -17.4207992554 14.6016998291 5.5776000023
v -0.6542999744 -20.6772994995 0.1826000065
v -35.5539016724 -5.1841001511 5.0633001328
v 27.5312995911 3.0436999798 -1.3387999535
v -26.5377998352 -15.4805002213 2.6554000378
v -21.2497997284 -8.8477001190 7.4187002182
v -6.0638999939 12.4388999939 10.0529003143
v -15.9724998474 -8.4451999664 9.2088003159
v 10.6413002014 -2.1803998947 16.6954994202
v -15.6848001480 -8.1359996796 10.6096000671
v -13.2318000793 -8.3120002747 11.6524000168
v -8.6087999344 4.9271001816 13.8976001740
v 1.2157000303 -6.3383998871 16.3199005127
v -18.7168998718 -6.9921998978 4.6083998680
v 16.5650997162 6.2505998611 -1.2053999901
v 4.3155999184 -8.3535995483 -0.7461000085
v -33.7397003174 -16.7115001678 -1.0785000324
v 0.7307999730 -22.5587997437 2.5722000599
v -29.1065998077 -0.3549999893 3.1061000824
v 4.0975999832 -16.7017002106 -0.6578999758
v -35.3736991882 -3.7441000938 -2.5669000149
v 27.5505008698 -10.7954998016 1.0226999521
v 1.2293000221 -14.6113996506 2.0861001015
v -9.1386995316 12.0690002441 1.7326999903
v -1.2128000259 -22.5475997925 0.9358000159
v -35.3359985352 -3.1012001038 -1.5595999956
v -8.0950002670 -23.9606990814 -7.6468000412
v -18.1257991791 12.5834999084 7.4991002083
v -11.8208999634 1.6519000530 3.3842999935
v -30.3628005981 0.6355999708 4.8874998093
v -8.8297996521 -29.0510997772 -7.0296998024
v -21.2437992096 2.3304998875 9.4329996109
v -17.4587001801 14.7421998978 3.7778999805
v -31.1438999176 2.8557000160 -3.2887001038
v -23.6539993286 -10.6028995514 5.7955999374
v -16.7287998199 8.1549997330 3.2664000988
v -41.7277984619 -6.8228998184 -3.4937000275
v 27.5636005402 10.3432998657 6.6350002289
v -20.4888992310 6.8866000175 4.3677000999
v -7.1905999184 11.0679998398 10.8710002899
v -11.4081001282 -6.1027002335 14.7749004364
v -8.7363996506 -28.4862995148 -5.6904001236
v -13.4033002853 14.1222000122 2.9930000305
v -33.8182983398 -6.6599001884 -2.6142001152
v -22.4388999939 -11.0975999832 4.9965000153
v 27.4804992676 5.7196998596 -0.7095000148
v -31.6040992737 0.3761000037 -2.7562000751
v -8.4457998276 -25.5522994995 -8.9462995529
v -30.6648006439 9.7510995865 -5.7743000984
v -37.4277000427 -16.4270992279 1.5643999577
v -20.8481006622 -12.4413003922 12.4409999847
v 13.7091999054 -12.3071002960 -1.8950999975
v 14.8543996811 1.5040999651 -1.3734999895
v 27.5317993164 10.1206998825 2.9198999405
v 7.2280001640 -16.8118000031 10.7094001770
v -38.4924011230 -8.3179998398 -4.1852002144
v -37.5457992554 -14.4078998566 1.5765000582
v -37.4430007935 2.1942000389 -4.1195001602
v 27.5286998749 -6.7785000801 -1.1103999615
v 8.0602998734 -4.2964000702 -0.4885999858
v -13.4158000946 0.0230000000 10.1787004471
v -4.8147001266 8.0254001617 0.9017999768
v -27.3544006348 10.0261001587 -5.2413997650
v 17.0312004089 -16.3115997314 2.0204000473
v -1.2580000162 -10.2139997482 2.8171999454
v -24.0543003082 -8.6451997757 5.5928001404
v -30.5377006531 1.8344000578 5.7512001991
v 6.9369001389 -12.3681001663 14.5710000992
v -3.6173000336 10.8640003204 11.4400997162
v 0.4711999893 -16.3642997742 10.0670003891
v 27.5310001373 10.7747001648 4.3927998543
v -11.6653995514 7.8776998520 6.0536999702
v 20.4370994568 -14.3536996841 9.9960002899
v -35.7756996155 -16.5631008148 -1.1175999641
v 27.5319004059 5.4685997963 -0.7892000079
v 27.5317001343 5.0075001717 -0.9283999801
v 6.5690999031 -15.3038997650 -1.9802000523
v -21.8183002472 -8.7904996872 8.0686998367
v 27.4801998138 5.2532000542 -0.8621000051
v -14.7615995407 -7.6286001205 6.0706000328
v -7.6978001595 -23.2579002380 -6.4668002129
v -28.0210990906 -11.2600002289 4.0802998543
v -5.7223000526 10.1999998093 1.0204999447
v -1.9028999805 -15.7749996185 11.5630998611
v -10.3851995468 10.3457002640 9.8396997452
v -34.4494018555 5.3453998566 -1.1832000017
v -7.6792998314 -26.8703994751 -9.8710002899
v -35.0858993530 -17.3358001709 -0.7469999790
v -31.7129993439 7.9359002113 -3.6329998970
v -8.2276000977 13.5004997253 2.9958999157
v -29.7889003754 6.1414999962 3.2799000740
v -6.8853998184 -27.3278007507 -10.1176996231
v -35.9314002991 -0.5963000059 -2.8234999180
v 27.5316009521 4.5563001633 -1.0457999706
v 27.4799003601 4.7967000008 -0.9908000231
v 10.6133003235 13.2230997086 3.8928000927
v 17.8215007782 -11.2444000244 -0.6715000272
v -35.9239997864 -17.5718994141 2.3684000969
v 0.2255000025 -0.9613000154 1.6821000576
v -42.0120010376 -6.2719001770 -2.7316999435
v -30.1935005188 5.7473001480 4.2504000664
v 11.0265998840 -21.3568000793 -1.3190000057
v 11.1259002686 10.3150997162 0.1722999960
v -10.9401998520 8.6961002350 9.7213001251
v -38.3754997253 2.5492999554 -1.4805999994
v -20.5596008301 -0.1039000005 5.8762998581
v -7.1291999817 -25.7019004822 -9.9554004669
v -19.1021995544 1.4859999418 2.9370000362
v -7.7593998909 -11.2114000320 14.9949998856
v -13.5452995300 1.1173000336 3.8457000256
v 27.4794998169 4.3495998383 -1.1001000404
v -14.5921001434 -7.2625999451 12.5648002625
v 27.5608005524 3.9684998989 -0.8761000037
v 1.1194000244 -19.0214004517 -0.0458000004
v -27.1128997803 -16.9591007233 3.5984001160
v -28.5326995850 5.8951997757 0.6050999761
v 27.5638008118 -10.2184000015 1.3847999573
v -17.4312992096 -9.7109003067 8.9899997711
v -24.5074005127 9.3239002228 -3.3733999729
v -30.8020000458 -11.4385995865 4.2944998741
v 2.4874999523 12.6647996902 2.4521000385
v -32.5102005005 9.4608001709 -4.0419998169
v -32.0093994141 -9.0256996155 2.8956999779
v -21.1448001862 -11.5335998535 11.8275995255
v -35.2901992798 -4.5657000542 -3.1814000607
v -8.6234998703 -27.0279998779 -9.1367998123
v -13.5517997742 -0.0588999987 6.3622999191
v -13.9631004333 -2.7857999802 4.8001999855
v -38.6529006958 -3.4093000889 -2.4974999428
v -5.7909998894 3.2546999454 1.7700999975
v -37.6007003784 -15.4247999191 0.3001999855
v -40.6059989929 -8.4919996262 -1.1239000559
v -32.4599990845 9.0121002197 -3.0227999687
v -29.3915996552 11.2442998886 -5.4727997780
v -36.6935005188 -2.9535999298 -1.4607000351
v -2.1839001179 -25.8050003052 -0.0632999986
v -15.0854997635 1.5572999716 10.4609003067
v -30.3813991547 -15.4038000107 8.3337001801
v 2.8313000202 -17.6576004028 6.3498001099
v -34.8457984924 3.3210000992 -4.4228000641
v -2.5906000137 -21.7616996765 -7.1799001694
v -38.2426986694 3.3738999367 -2.1600000858
v -16.1993007660 12.7093000412 1.0729000568
v 8.4200000763 -7.0939002037 -1.9622000456
v 8.7047996521 -21.2140007019 -3.0703999996
v 22.2705993652 6.1641001701 0.3996999860
v -33.6433982849 -17.5508003235 -0.4025000036
v -37.1001014709 0.2067999989 -0.4921999872
v -36.7905006409 0.1815000027 -3.6860001087
v 3.4967999458 -17.1979007721 9.1553001404
v 14.6759004593 -16.9606990814 9.1162004471
v -11.9834995270 -9.0292997360 12.8840999603
v -30.2161006927 -14.3954000473 8.6270999908
v 5.6598000526 -19.0121002197 7.8902001381
v 8.7934999466 -21.7196998596 6.4896001816
v 1.6239000559 -27.4517993927 -4.9450998306
v -30.7882995605 10.6920995712 -5.6455001831
v 27.5266990662 -1.3653999567 16.7672004700
v -21.1534996033 -6.2743000984 3.7367999554
v 27.5506992340 8.2904996872 0.7821000218
v -19.7840995789 6.3043999672 3.2688999176
v -16.7007007599 0.5162000060 8.7041997910
v 12.1080999374 5.8845000267 14.5494003296
v -32.1804008484 11.1321001053 -3.9142000675
v -0.9140999913 -14.8034000397 13.1709995270
v -2.5541999340 -22.7357997894 -8.3184003830
v 27.5268993378 8.9998998642 12.8177995682
v -30.2691001892 7.4513998032 -2.2002000809
v -13.3221998215 -7.6409997940 6.1034002304
v -0.6520000100 -16.3705997467 8.4369001389
v -37.2439994812 3.4779000282 -3.8419001102
v -37.6898002625 0.2432000041 -2.7486000061
v -8.8157997131 0.6049000025 14.2580003738
v -10.1661996841 -15.4040002823 7.2305002213
v -32.1016006470 -18.1159992218 1.4290000200
v 27.5391998291 -13.5924997330 6.1416997910
v -31.5559997559 10.5881996155 -5.3242998123
v -16.0172996521 8.1767997742 5.5858998299
v -27.5601005554 -6.2438998222 8.9720001221
v -41.7197990417 -5.1835999489 -2.1577999592
v -12.1112003326 3.3870000839 12.6196002960
v -0.8531000018 -13.5648002625 3.2748000622
v -5.1954002380 -26.4585990906 -10.2063999176
v -40.1091995239 -3.9235000610 -2.7711000443
v 6.1522998810 -20.8990993500 -4.1774001122
v -25.4883995056 -3.6598999500 2.0072999001
v 27.5608997345 8.8716001511 1.7913000584
v -36.8506011963 -9.5441999435 -0.3167000115
v -28.5720996857 -16.6751995087 8.2817001343
v 6.9305000305 -13.6412000656 13.7660999298
v -34.2593002319 -7.9591999054 -2.3582000732
v 22.1637001038 11.4785003662 6.5974998474
v 2.2086999416 -16.8987007141 3.8250000477
v 19.8449993134 10.3949003220 10.6064996719
v -11.2805004120 1.2840000391 12.7869997025
v -32.3703994751 10.3315000534 -4.4018001556
v -1.3352999687 -12.0315999985 2.9614999294
v -10.9995002747 5.7287001610 3.0864999294
v -39.5951004028 -7.4310002327 -4.6420998573
v -20.0354995728 0.2958999872 4.0956001282
v -23.2614994049 7.9482002258 -0.4665000141
v -38.0047988892 0.8810999990 -3.0453999043
v -6.0809998512 -1.4543000460 2.6682999134
v -12.2882995605 -1.5413000584 5.0541000366
v 20.0990009308 0.2162999958 -0.9322999716
v -30.0956993103 7.2295999527 -3.4776999950
v -4.9296998978 0.9728000164 15.2105998993
v -22.1832008362 -6.4257998466 11.0925998688
v -19.2658996582 -16.8526000977 10.5682001114
v -36.0932006836 -15.1591997147 3.3227999210
v 19.0743007660 -12.6674995422 12.5366001129
v -33.4942016602 5.3425002098 -2.0281999111
v -31.6846008301 -17.7035007477 0.6927999854
v 20.3997001648 -15.1115999222 8.2639999390
v 12.4603996277 12.5921001434 2.7263998985
v -12.5366001129 0.9171000123 11.7406997681
v 27.5300998688 -2.4414999485 -1.6593999863
v 3.0622000694 -16.5764007568 1.1926000118
v 14.4274997711 -14.1930999756 -1.0916999578
v -11.7367000580 -9.2760000229 6.1819000244
v -27.1399993896 -2.6633000374 2.1544001102
v -38.4906997681 1.8680000305 -2.2678999901
v -41.7406005859 -7.0146999359 -1.5809999704
v 21.2894992828 11.0441999435 9.2487001419
v 16.1788997650 9.5495004654 0.2469000071
v 22.3155002594 8.3402996063 1.5633000135
v -35.6859016418 -17.8614006042 0.5530999899
v 3.9746999741 -23.5634994507 -5.3536000252
v -29.3759994507 -2.0127000809 2.8566999435
v 3.1512999535 -22.6515998840 -5.6742000580
v 15.6166000366 11.7459001541 2.3793001175
v -32.1086997986 2.3187000751 4.7891001701
v 2.4953000546 13.4399995804 4.0580000877
v -13.1538000107 -10.0811996460 12.9384002686
v 21.2306995392 -4.1700000763 -1.1569999456
v -36.9220008850 -4.8698000908 -4.0359001160
v 15.3901996613 3.8139998913 15.5694999695
v 19.3824996948 -13.0495996475 1.0384000540
v -37.3434982300 -16.6282005310 0.7129999995
v -0.0171000008 -5.3916001320 2.6805000305
v 22.9514999390 10.0707998276 3.1784000397
v -12.8016004562 -9.2884998322 8.0820999146
v 11.7965002060 -22.5573005676 2.3108000755
v 27.5273990631 9.9868001938 11.5771999359
v -32.7806015015 4.1189999580 3.7439999580
v -28.2663993835 4.8443999290 -0.7156999707
v -35.3903007507 4.2701997757 -3.7925000191
v -0.5615000129 -14.7458000183 4.0774998665
v 4.9814000130 -17.6783008575 9.0620002747
v -32.5908012390 10.0209999084 -3.3875999451
v -35.1699981689 -9.1450004578 -1.4974999428
v -18.9557991028 2.8313999176 2.3840000629
v -9.2045001984 -26.9311008453 -5.6294999123
v 13.2075004578 -15.6506996155 11.2496004105
v -28.2143993378 0.0947000012 4.8440999985
v 8.0711002350 13.3733997345 5.9474000931
v -10.4177999496 -14.0971002579 5.8927998543
v 12.0866003036 -21.8469009399 0.5600000024
v -13.5967998505 0.3549000025 9.6300001144
v -12.0944004059 -4.8112998009 4.2985000610
v -27.7579994202 1.1948000193 -0.5084999800
v 2.6902000904 -17.8463993073 4.1349000931
v -20.8220005035 -4.4741001129 3.5664000511
v -23.7758998871 -7.1410999298 10.0934000015
v -5.4882998466 -25.6996994019 -2.2467999458
v -37.1291007996 -14.6885004044 -0.5357000232
v -34.1276016235 -0.6717000008 -2.6408998966
v -2.8928999901 -25.7416992188 -9.5511999130
v -10.2641000748 -4.4414000511 15.4582996368
v -9.4055004120 -26.3276996613 -7.3303999901
v -32.1102981567 -3.5432999134 6.5362000465
v -17.9883995056 14.4475002289 2.4895000458
v -9.6512002945 -2.6194000244 15.3800001144
v 15.7657003403 12.0701999664 8.1445999146
v 27.5363998413 -12.2697000504 2.7704999447
v 9.2368001938 -24.1944007874 1.9143999815
v -35.9406013489 -8.6143999100 -2.9314000607
v -17.8157997131 -10.3970003128 12.0234003067
v -15.0591001511 -16.1102008820 12.1324996948
v 8.6787004471 -17.4986000061 -2.8076000214
v -37.4356002808 0.9865000248 -3.8176999092
v -20.9323005676 9.0220003128 5.3438000679
v -6.9913001060 -11.2020998001 4.0282998085
v -18.5496997833 -17.0757007599 9.1323995590
v -11.2962999344 9.7024002075 9.2454004288
v -12.7399997711 0.1093000025 5.1398000717
v -32.1769981384 3.3196001053 4.7207999229
v 3.9035000801 -18.9601001740 6.2330999374
v -38.0178985596 2.6459000111 -3.4832000732
v -11.7003002167 -2.9328000546 4.3397002220
v -14.5445995331 -4.8269000053 4.4100999832
v -4.8334999084 13.6548995972 8.3104000092
v 27.5655002594 -0.8708999753 -0.4485999942
v 27.5608997345 7.3568000793 0.4329000115
v 18.0118999481 8.0848999023 -0.1811999977
v 9.4272003174 -23.7831993103 -0.3346999884
v -35.6525993347 2.4012999535 -4.6370000839
v 27.5638008118 6.1905999184 0.1309999973
v -35.1972999573 -3.0761001110 3.3875000477
v -41.1879997253 -4.5418000221 -2.4030001163
v -10.7676000595 12.4800996780 9.0993995667
v 27.0186996460 7.7810001373 13.8867998123
v -25.6154994965 9.2031002045 3.2848000526
v 9.0373001099 -9.3284997940 -2.4609000683
v -38.2759017944 0.9320999980 -1.9808000326
v -11.9187002182 -8.5363998413 6.1111001968
v 7.3846998215 -18.1215991974 9.2975997925
v -36.6674995422 -6.0430998802 -4.2396998405
v 27.5261001587 3.5652999878 15.9771003723
v -11.0787000656 2.9419999123 2.8554999828
v -18.1499996185 13.9512996674 6.5700998306
v -22.2933998108 11.6122999191 -1.7042000294
v 27.5347995758 -13.0516004562 10.7076997757
v -8.1869001389 -4.2641000748 15.9243001938
v 22.7141990662 -13.4032001495 10.7102003098
v -38.2616004944 -9.3357000351 -2.7363998890
v -18.9347991943 -16.0328006744 12.0579004288
v 6.3038001060 -18.2917995453 -3.0847001076
v -4.3171000481 -24.0841999054 -9.5668001175
v -0.3871000111 2.9604001045 15.3540000916
v -15.2978000641 -0.9902999997 8.1553001404
v 1.6683000326 -16.8964996338 7.5629000664
v -27.8218002319 8.1906995773 -4.7273001671
v 9.2449998856 9.2924003601 12.2032003403
v 3.6610999107 -17.4237003326 -0.9894999862
v 21.6935997009 -3.7931001186 16.5767993927
v -34.3540992737 -18.1963996887 1.5123000145
v -13.2358999252 -1.3946000338 12.9729003906
v -31.7350997925 4.0046000481 -3.2267999649
v -36.1953010559 -9.1543998718 1.5724999905
v -27.1634998322 -17.4246006012 6.9956002235
v 4.9855999947 -17.3764991760 -1.9986000061
v -12.2496995926 -2.0174000263 14.0703001022
v -32.1249008179 -0.6320000291 -1.6495000124
v -10.7037000656 -12.8459997177 5.3720002174
v -25.0172996521 10.1202001572 -3.9820001125
v -30.1266994476 7.7178001404 -4.7374000549
v -29.7345008850 2.5954000950 6.3317999840
v 2.6152000427 -17.1604995728 2.7160000801
v -12.8545999527 -8.5584001541 7.5626997948
v -9.3114995956 -8.2899999619 4.3558998108
v -12.5593004227 7.3530001640 6.0996999741
v -11.5374002457 -11.1880998611 5.5137000084
v -39.4562988281 -9.2283000946 -2.7634999752
v 11.0783996582 -13.5141000748 -2.2237000465
v -13.6915998459 -0.8565999866 7.2544999123
v -29.3789005280 12.7037000656 -2.4414000511
v -41.8630981445 -7.3702998161 -2.0524001122
v -24.0025997162 7.6280999184 0.8155000210
v -13.3879995346 -11.7076997757 13.8613004684
v -30.9932003021 -12.7025003433 7.2130999565
v -14.8309001923 -15.0515003204 13.2214002609
v -13.6735000610 -0.4345999956 8.4725999832
v 9.6730003357 -13.2627000809 -2.3125998974
v -12.6406002045 -8.9322996140 11.6478004456
v -10.8492002487 0.0750000030 13.4688997269
v 7.7364997864 10.8715000153 10.7348003387
v -40.0411987305 -8.6433000565 -3.7641000748
v -41.2507019043 -8.3662996292 -2.6967999935
v -15.6438999176 -1.6455999613 11.5620002747
v -12.4190998077 7.6992001534 8.9797000885
v -0.5583999753 -26.8689002991 -0.0078999996
v -9.4787998199 9.0074996948 10.9849996567
v -22.9517002106 0.2906999886 6.9730000496
v -0.1061000004 -19.9073009491 -2.6603000164
v -37.8209991455 0.4530999959 -1.1374000311
v -24.2866001129 5.5911998749 0.9858999848
v -34.1775016785 -12.0768003464 2.0524001122
v 27.5564002991 10.3915996552 3.8341999054
v -20.3549995422 1.4026999474 9.1477003098
v 6.2951002121 -22.6602001190 5.4113001823
v -12.2568998337 8.9266996384 7.9882001877
v 16.6849002838 -15.0573997498 0.7626000047
v -0.1611000001 -27.6364002228 -0.8644000292
v 8.1499004364 -8.0134000778 16.0914001465
v -39.4407997131 -9.2367000580 -1.5782999992
v -19.6390991211 9.9636001587 6.6538000107
v 11.2545003891 4.5296998024 -1.4429999590
v -6.0668001175 -5.3657999039 2.9256000519
v -29.1487998962 12.2704000473 -4.3903999329
v 27.5550003052 8.1731004715 13.4091997147
v 16.7332000732 1.1878999472 16.3796005249
v 22.9286994934 -14.2888002396 5.4197001457
v 1.1773999929 -20.5084991455 -4.6529998779
v -5.7302999496 -27.8889999390 -3.7873001099
v -29.4689998627 7.8797001839 -0.6819000244
v -11.8837003708 7.1785001755 5.2600002289
v -34.6631011963 0.4560000002 -4.0366001129
v -37.7239990234 -15.3326997757 1.2555999756
v -12.4568996429 -0.4185000062 5.4419999123
v -5.0223999023 -16.0737991333 10.1393995285
v -26.2961006165 13.1136999130 -2.2718999386
v -37.4206008911 -13.9111003876 0.9018999934
v -10.7788000107 7.3091001511 3.6839001179
v 2.6324000359 -19.1135997772 4.0320000648
v -22.7303009033 3.9149000645 0.7915999889
v -9.1251001358 6.4765000343 2.4223999977
v 0.3770000041 -20.1313991547 -3.8229000568
v 17.5652999878 -16.9631004333 6.0268998146
v -22.1305007935 -8.0185003281 4.8484001160
v -34.5600013733 -17.7651004791 3.1842000484
v -31.4433994293 -12.6592998505 0.1173999980
v 12.0254001617 6.2702999115 -1.3895000219
v -4.2754998207 -22.8687992096 -8.6771001816
v -28.0389003754 0.2266999930 0.2524000108
v -12.0026998520 0.4273000062 4.2897000313
v -15.3726997375 -1.0161000490 9.9567003250
v 21.0592002869 -8.4088001251 -0.5662999749
v -26.7411003113 7.2032999992 -2.6800000668
v -36.2106018066 0.7073000073 -4.2136001587
v 17.5627994537 8.4200000763 12.7874002457
v -17.7446002960 -10.8787002563 6.2186999321
v -34.6036987305 -12.9083995819 -0.6069999933
v -40.9267005920 -6.0743999481 -4.3615999222
v 12.3563003540 -16.4451999664 -1.6126999855
v 12.9728002548 13.0333995819 5.5300002098
v 16.1639003754 12.4729995728 4.6001000404
v -5.7508997917 -23.5398998260 -9.0749998093
v 12.1447000504 -7.7256999016 -2.4001998901
v -21.9531002045 -7.7175002098 10.2503004074
v -33.2038002014 -13.0635995865 -0.7134000063
v 4.3403000832 9.9092998505 0.3521000147
v -22.2217998505 -3.4117000103 3.3986001015
v -2.7787001133 -11.5173997879 3.4807999134
v -33.9047012329 -12.3186998367 0.2003999949
v -12.5546998978 -6.1350002289 4.7360000610
v -6.4010000229 -13.8310003281 14.2369003296
v -3.7390000820 14.1202001572 5.7156000137
v -35.4286994934 -0.0970000029 -3.7056000233
v -24.6011009216 -17.4293994904 6.8108000755
v -5.5851998329 -22.4319000244 -7.7867999077
f 532 428 157
f 7 88 350
f 505 179 577
f 122 264 325
f 391 402 519
f 379 521 298
f 335 275 347
f 591 176 408
f 113 336 299
f 122 57 577
f 533 689 477
f 385 515 37
f 607 123 244
f 696 434 459
f 521 49 665
f 582 562 226
f 269 300 199
f 300 269 177
f 29 66 7
f 313 264 577
f 224 139 261
f 657 698 679
f 389 161 5
f 602 542 442
f 514 117 9
f 168 26 128
f 573 217 413
f 264 313 460
f 99 641 341
f 462 408 176
f 443 89 78
f 389 194 637
f 698 657 536
f 290 394 505
f 622 16 615
f 300 177 254
f 341 641 447
f 580 139 233
f 89 466 451
f 113 524 639
f 145 285 217
f 556 85 501
f 171 508 259
f 21 456 84
f 610 575 263
f 439 185 591
f 610 489 575
f 516 409 96
f 300 254 311
f 483 174 342
f 17 434 548
f 613 457 645
f 647 322 79
f 90 159 505
f 226 129 582
f 466 114 693
f 156 35 265
f 106 433 519
f 319 326 658
f 88 7 66
f 607 153 123
f 445 164 544
f 621 378 24
f 47 84 650
f 539 395 269
f 259 508 400
f 351 389 304
f 90 505 57
f 655 221 572
f 327 566 679
f 374 85 556
f 301 113 639
f 222 506 432
f 311 212 522
f 545 152 565
f 170 227 587
f 82 504 677
f 101 260 540
f 241 348 364
f 270 32 33
f 255 496 367
f 310 192 583
f 636 430 197
f 320 393 26
f 488 321 366
f 292 451 466
f 550 558 327
f 6 117 514
f 569 188 449
f 195 94 239
f 51 2 630
f 255 479 319
f 310 538 15
f 456 567 563
f 114 526 604
f 502 525 365
f 489 19 511
f 70 539 522
f 275 335 349
f 290 159 295
f 613 585 457
f 504 273 486
f 229 251 586
f 168 320 26
f 2 51 64
f 459 69 40
f 199 311 522
f 281 208 248
f 237 241 364
f 587 601 170
f 3 63 362
f 368 111 68
f 120 634 667
f 651 427 578
f 420 342 523
f 663 142 341
f 577 57 505
f 386 562 582
f 381 279 280
f 555 396 469
f 509 368 68
f 583 542 538
f 321 684 614
f 622 330 16
f 26 393 161
f 3 245 63
f 316 536 657
f 559 201 102
f 297 204 554
f 32 270 580
f 522 29 70
f 522 212 29
f 256 167 540
f 456 638 307
f 229 320 168
f 365 28 390
f 190 572 551
f 454 20 587
f 141 649 661
f 307 84 456
f 273 504 237
f 302 541 87
f 25 65 233
f 294 534 287
f 553 60 78
f 236 284 247
f 478 458 600
f 503 14 421
f 339 353 660
f 410 653 20
f 66 294 271
f 595 86 427
f 586 478 548
f 613 627 585
f 636 385 430
f 690 694 671
f 569 449 183
f 14 503 619
f 120 667 410
f 627 613 628
f 289 170 594
f 144 150 277
f 420 483 342
f 182 346 170
f 506 222 589
f 355 117 370
f 312 412 118
f 316 674 603
f 652 242 668
f 328 562 246
f 242 652 483
f 85 374 491
f 594 170 601
f 20 435 410
f 70 317 539
f 272 180 492
f 516 96 440
f 8 666 67
f 84 1 21
f 81 419 518
f 70 7 350
f 199 300 311
f 509 334 693
f 321 488 684
f 243 387 511
f 449 492 180
f 620 128 26
f 24 91 14
f 70 350 296
f 671 154 137
f 410 667 653
f 631 640 405
f 618 551 221
f 129 480 584
f 627 468 325
f 70 296 317
f 480 129 108
f 645 401 628
f 665 49 80
f 468 122 325
f 299 501 417
f 278 427 651
f 225 494 564
f 283 428 560
f 369 306 617
f 698 536 362
f 527 333 121
f 247 241 237
f 111 688 413
f 454 414 497
f 97 563 134
f 504 82 688
f 308 10 630
f 568 216 453
f 214 2 207
f 98 157 428
f 381 310 15
f 152 545 56
f 543 525 561
f 274 173 146
f 622 590 676
f 93 292 466
f 154 194 351
f 677 321 82
f 271 105 135
f 93 466 334
f 177 269 395
f 334 182 93
f 194 38 637
f 400 508 658
f 571 155 165
f 63 417 262
f 87 661 224
f 24 378 91
f 212 311 654
f 368 399 48
f 547 83 161
f 558 440 327
f 238 317 296
f 406 528 162
f 401 13 187
f 404 216 133
f 350 120 296
f 419 591 408
f 557 531 664
f 409 598 303
f 620 26 161
f 305 470 94
f 581 131 268
f 547 161 393
f 559 473 201
f 535 343 259
f 155 47 165
f 339 660 439
f 554 204 646
f 487 462 198
f 284 564 247
f 694 38 194
f 199 539 269
f 700 296 120
f 444 416 482
f 449 200 369
f 380 237 364
f 668 235 652
f 102 675 11
f 52 437 655
f 199 522 539
f 663 8 142
f 250 151 36
f 37 598 409
f 675 659 555
f 98 460 313
f 122 468 57
f 675 102 201
f 32 276 561
f 223 180 272
f 84 513 436
f 29 534 294
f 543 109 626
f 596 600 670
f 405 534 654
f 432 593 222
f 673 700 410
f 638 456 323
f 40 337 459
f 64 207 2
f 295 213 209
f 9 440 411
f 619 24 14
f 209 290 295
f 616 433 106
f 101 133 260
f 357 416 496
f 168 128 73
f 111 48 647
f 40 480 337
f 557 419 408
f 365 686 484
f 133 213 295
f 417 85 635
f 393 320 547
f 434 353 81
f 120 350 88
f 454 684 414
f 525 543 685
f 510 160 323
f 652 164 445
f 688 111 79
f 47 155 1
f 447 641 551
f 656 99 341
f 116 167 178
f 551 554 646
f 549 587 227
f 444 600 596
f 576 69 324
f 58 389 637
f 128 620 422
f 371 232 497
f 486 562 328
f 244 501 336
f 457 392 599
f 211 310 381
f 519 25 106
f 395 539 317
f 599 13 401
f 273 382 562
f 248 207 281
f 140 605 581
f 484 686 500
f 700 120 410
f 73 251 168
f 512 205 253
f 536 3 362
f 239 605 140
f 656 142 308
f 480 342 584
f 25 224 106
f 29 7 70
f 398 453 216
f 158 209 455
f 190 65 52
f 193 192 59
f 602 625 485
f 682 38 694
f 416 444 496
f 493 513 206
f 432 155 571
f 66 29 294
f 223 568 180
f 380 382 273
f 239 268 195
f 15 538 127
f 258 544 164
f 410 435 673
f 487 608 462
f 200 449 188
f 449 369 492
f 192 193 583
f 481 115 385
f 557 423 518
f 330 676 629
f 79 322 474
f 557 518 419
f 52 572 190
f 644 595 282
f 650 189 47
f 310 583 538
f 1 84 47
f 159 90 188
f 392 61 335
f 385 37 481
f 322 236 474
f 104 251 73
f 298 579 11
f 456 21 562
f 123 153 126
f 268 140 581
f 282 193 59
f 150 280 279
f 659 473 615
f 596 367 496
f 520 61 457
f 256 223 272
f 600 444 699
f 289 594 487
f 183 449 180
f 382 567 562
f 218 31 202
f 288 3 100
f 500 372 484
f 9 516 440
f 126 207 123
f 60 384 228
f 480 523 342
f 382 380 363
f 649 55 616
f 555 659 396
f 394 290 158
f 143 129 226
f 212 654 534
f 470 618 678
f 136 452 537
f 165 47 189
f 179 394 158
f 657 566 215
f 218 202 615
f 458 586 104
f 562 21 22
f 510 323 34
f 631 405 654
f 192 378 59
f 338 276 309
f 666 267 77
f 40 523 480
f 148 390 28
f 453 159 188
f 159 453 398
f 58 43 620
f 139 580 261
f 564 415 247
f 325 585 627
f 452 147 588
f 171 496 255
f 355 516 9
f 20 499 435
f 621 59 378
f 155 432 506
f 138 43 58
f 682 35 112
f 435 499 95
f 313 157 98
f 174 445 582
f 77 399 579
f 157 313 179
f 218 53 31
f 427 86 21
f 485 597 602
f 582 584 174
f 619 547 320
f 679 418 550
f 53 397 560
f 171 259 343
f 439 660 78
f 405 287 534
f 172 131 293
f 669 283 349
f 628 613 645
f 476 281 442
f 198 176 292
f 461 686 685
f 648 509 693
f 42 34 456
f 455 157 158
f 534 29 212
f 206 84 307
f 493 461 685
f 697 525 502
f 598 80 303
f 39 318 332
f 571 165 189
f 674 100 603
f 512 186 205
f 597 629 116
f 304 387 243
f 537 252 136
f 630 99 611
f 324 459 434
f 10 64 51
f 368 48 111
f 452 376 147
f 257 94 195
f 59 621 696
f 371 414 642
f 525 697 561
f 552 114 604
f 260 133 216
f 655 572 52
f 80 598 515
f 239 140 268
f 501 244 556
f 408 462 531
f 643 631 654
f 406 196 301
f 144 275 349
f 424 205 420
f 581 118 131
f 366 507 488
f 136 175 452
f 75 278 651
f 161 58 620
f 128 422 73
f 674 530 377
f 585 520 457
f 134 563 315
f 537 452 588
f 543 463 493
f 250 308 142
f 395 356 76
f 56 643 210
f 6 244 123
f 9 374 514
f 330 528 16
f 114 552 693
f 464 162 485
f 579 298 521
f 124 72 12
f 643 253 125
f 431 528 406
f 341 305 50
f 399 368 472
f 76 177 395
f 654 254 643
f 76 356 361
f 41 110 146
f 417 63 245
f 279 347 277
f 434 696 621
f 533 477 448
f 95 497 252
f 499 497 95
f 546 520 585
f 332 592 39
f 118 661 541
f 316 49 530
f 179 158 157
f 479 74 407
f 682 265 35
f 346 182 217
f 360 115 355
f 626 593 680
f 394 179 505
f 200 188 683
f 17 553 78
f 374 9 411
f 361 356 376
f 690 265 682
f 487 198 289
f 98 61 460
f 230 80 515
f 667 634 103
f 515 636 230
f 441 471 550
f 257 50 305
f 476 442 542
f 562 22 226
f 229 619 320
f 458 74 670
f 180 568 183
f 15 178 477
f 37 409 516
f 326 662 658
f 370 117 6
f 395 376 356
f 577 179 313
f 585 325 546
f 87 270 302
f 187 272 492
f 561 33 32
f 384 60 699
f 492 401 187
f 514 374 556
f 114 89 526
f 228 78 60
f 93 182 170
f 27 256 272
f 474 237 504
f 649 141 403
f 17 548 478
f 354 632 570
f 512 565 527
f 84 436 650
f 379 298 675
f 540 260 223
f 129 143 108
f 408 531 557
f 401 492 617
f 341 142 656
f 687 700 673
f 645 599 401
f 122 577 264
f 238 296 700
f 469 377 555
f 659 675 201
f 221 475 678
f 240 239 470
f 599 645 457
f 149 190 204
f 582 129 584
f 203 373 630
f 700 687 238
f 564 284 225
f 434 17 353
f 608 105 531
f 118 541 312
f 582 445 544
f 588 673 435
f 678 240 470
f 624 211 381
f 685 365 525
f 119 405 640
f 36 579 521
f 305 341 447
f 684 454 549
f 660 353 17
f 27 272 187
f 50 257 663
f 638 340 307
f 469 100 674
f 218 615 473
f 17 78 660
f 221 655 437
f 106 224 616
f 305 94 257
f 656 308 611
f 262 362 63
f 254 654 311
f 361 452 175
f 126 196 450
f 264 460 546
f 433 465 519
f 687 673 588
f 482 286 173
f 612 610 552
f 198 93 170
f 147 687 588
f 158 290 209
f 573 623 346
f 325 264 546
f 308 115 10
f 661 87 541
f 597 485 330
f 75 583 278
f 614 684 549
f 8 663 257
f 38 682 112
f 23 681 612
f 501 299 336
f 32 580 297
f 65 190 233
f 291 71 246
f 64 370 6
f 636 515 385
f 86 22 21
f 89 185 78
f 407 73 422
f 584 342 174
f 412 131 118
f 18 101 163
f 204 190 646
f 107 676 590
f 417 635 262
f 4 448 27
f 676 107 18
f 587 549 454
f 237 474 247
f 286 146 173
f 25 233 139
f 548 621 586
f 247 474 236
f 595 644 108
f 79 474 504
f 639 633 431
f 19 243 511
f 114 466 89
f 215 316 657
f 291 246 386
f 440 96 327
f 24 229 621
f 373 354 554
f 524 288 633
f 136 252 231
f 448 4 533
f 18 163 629
f 25 139 224
f 176 198 462
f 152 231 425
f 452 361 376
f 616 661 649
f 288 375 633
f 448 178 256
f 137 154 314
f 13 46 4
f 429 97 62
f 427 21 578
f 697 312 302
f 553 478 699
f 36 197 250
f 691 372 225
f 326 319 479
f 108 54 595
f 548 434 621
f 84 206 513
f 547 619 503
f 404 295 159
f 554 551 641
f 210 152 56
f 303 49 316
f 376 395 317
f 248 208 309
f 398 404 159
f 276 32 570
f 142 467 250
f 238 376 317
f 207 64 123
f 483 420 242
f 366 258 507
f 229 586 621
f 563 97 429
f 58 637 138
f 615 16 659
f 343 535 156
f 298 11 675
f 263 695 610
f 450 442 281
f 107 202 498
f 485 162 528
f 532 560 428
f 105 664 531
f 355 9 117
f 127 538 542
f 146 286 41
f 333 527 371
f 194 389 351
f 244 6 556
f 290 505 159
f 662 112 535
f 308 630 611
f 352 172 293
f 677 71 366
f 489 612 19
f 164 235 642
f 78 228 443
f 386 544 291
f 216 568 260
f 263 438 349
f 332 318 403
f 626 109 593
f 402 391 169
f 216 404 398
f 254 177 220
f 561 697 33
f 554 99 373
f 544 386 582
f 481 355 115
f 375 396 16
f 629 597 330
f 567 315 563
f 559 397 218
f 101 167 163
f 309 570 632
f 568 223 260
f 115 360 10
f 349 438 144
f 686 365 685
f 257 195 130
f 553 17 478
f 234 265 690
f 105 608 487
f 382 363 345
f 211 91 310
f 42 429 62
f 352 130 172
f 482 416 286
f 169 391 92
f 251 104 586
f 261 87 224
f 328 71 677
f 232 371 425
f 413 329 111
f 620 43 422
f 341 50 663
f 559 218 473
f 490 209 213
f 376 238 687
f 659 201 473
f 605 219 581
f 59 696 337
f 368 509 648
f 249 423 557
f 220 175 44
f 5 83 387
f 133 295 404
f 160 638 323
f 571 463 680
f 14 91 421
f 498 213 133
f 243 19 681
f 262 441 362
f 219 605 332
f 141 581 219
f 482 173 384
f 204 297 149
f 352 181 331
f 12 146 110
f 121 512 527
f 600 699 478
f 672 691 225
f 104 73 407
f 322 647 236
f 514 556 6
f 135 105 487
f 286 416 357
f 45 678 475
f 573 346 217
f 672 181 691
f 687 147 376
f 175 220 76
f 241 415 495
f 555 377 379
f 331 181 48
f 326 138 662
f 251 229 168
f 24 619 229
f 274 228 384
f 119 423 249
f 28 365 484
f 8 267 666
f 265 234 156
f 175 76 361
f 657 679 566
f 256 27 448
f 148 691 352
f 520 546 460
f 192 91 378
f 235 164 652
f 460 61 520
f 176 89 517
f 220 177 76
f 439 78 185
f 532 692 53
f 360 64 10
f 571 680 432
f 442 450 464
f 297 570 32
f 90 683 188
f 143 226 22
f 530 49 377
f 662 138 112
f 255 367 74
f 271 88 66
f 44 231 152
f 246 71 328
f 392 457 61
f 443 228 526
f 672 284 647
f 153 607 301
f 89 451 517
f 46 533 4
f 639 406 301
f 293 148 352
f 413 191 329
f 429 42 456
f 485 625 464
f 120 88 634
f 152 210 44
f 501 85 417
f 543 493 685
f 156 234 343
f 192 310 91
f 223 256 540
f 11 472 102
f 292 93 198
f 343 234 286
f 667 601 653
f 107 590 202
f 406 162 196
f 531 462 608
f 103 601 667
f 601 103 594
f 202 590 615
f 55 433 616
f 420 523 424
f 270 87 261
f 456 562 567
f 130 267 8
f 658 508 319
f 112 138 38
f 186 668 242
f 456 563 429
f 22 86 54
f 699 60 553
f 559 102 472
f 44 254 220
f 653 587 20
f 181 647 48
f 467 151 250
f 593 432 680
f 230 197 36
f 696 459 337
f 154 694 194
f 252 537 95
f 503 624 30
f 671 41 690
f 580 270 261
f 431 633 16
f 517 451 292
f 52 65 402
f 532 53 560
f 135 487 594
f 113 301 607
f 306 628 617
f 98 669 61
f 286 357 343
f 138 479 43
f 109 543 561
f 632 214 248
f 375 469 396
f 375 288 100
f 292 176 517
f 437 52 358
f 589 75 651
f 692 31 53
f 688 573 413
f 413 217 285
f 625 602 442
f 69 459 324
f 74 479 255
f 41 671 110
f 315 567 344
f 23 604 166
f 678 618 221
f 162 464 450
f 222 208 589
f 359 697 502
f 181 672 647
f 136 44 175
f 424 523 69
f 88 132 634
f 633 639 524
f 583 193 282
f 88 271 132
f 642 235 333
f 426 55 403
f 13 599 46
f 30 511 83
f 495 510 34
f 294 287 664
f 53 218 397
f 606 169 92
f 224 661 616
f 441 262 635
f 648 552 610
f 237 380 273
f 566 409 215
f 367 670 74
f 363 380 364
f 55 426 446
f 372 500 494
f 166 274 72
f 174 483 652
f 435 95 588
f 692 455 490
f 68 191 509
f 253 56 545
f 249 557 664
f 157 455 532
f 345 364 348
f 364 345 363
f 113 607 336
f 283 669 428
f 245 288 524
f 495 564 494
f 130 268 172
f 632 354 373
f 681 19 612
f 344 348 315
f 95 537 588
f 600 458 670
f 640 424 576
f 215 303 316
f 463 571 436
f 550 418 441
f 86 595 54
f 695 283 560
f 698 362 418
f 535 35 156
f 107 498 18
f 345 567 382
f 567 345 344
f 470 239 94
f 589 208 476
f 126 281 207
f 587 653 601
f 565 152 425
f 258 71 291
f 623 227 346
f 268 131 172
f 494 510 495
f 576 423 640
f 30 150 511
f 81 518 324
f 402 169 358
f 578 1 155
f 651 578 506
f 190 149 233
f 41 234 690
f 461 206 340
f 656 611 99
f 349 283 695
f 304 5 387
f 447 551 618
f 499 454 497
f 205 424 125
f 181 352 691
f 420 205 186
f 450 196 162
f 299 245 524
f 397 529 560
f 241 315 348
f 612 604 23
f 210 643 254
f 316 603 536
f 309 276 570
f 293 359 148
f 612 489 610
f 399 77 267
f 541 302 312
f 565 425 371
f 125 253 205
f 379 377 521
f 471 441 574
f 287 405 119
f 161 83 5
f 339 81 353
f 504 486 328
f 697 359 312
f 282 278 583
f 333 235 121
f 465 433 446
f 294 664 105
f 209 490 455
f 191 413 285
f 490 498 202
f 241 247 415
f 390 359 502
f 20 454 499
f 281 126 450
f 500 184 510
f 424 640 125
f 160 510 184
f 490 202 692
f 507 164 642
f 127 542 602
f 562 486 273
f 359 390 148
f 68 329 191
f 692 532 455
f 279 277 150
f 184 461 340
f 498 490 213
f 606 92 39
f 173 274 384
f 355 370 360
f 217 182 145
f 44 136 231
f 42 62 34
f 85 491 574
f 420 186 242
f 303 80 49
f 433 55 446
f 558 550 471
f 228 274 166
f 647 284 236
f 124 137 314
f 355 481 516
f 488 642 684
f 366 321 677
f 161 389 58
f 375 16 633
f 108 143 54
f 399 331 48
f 445 174 652
f 603 3 536
f 329 68 111
f 467 77 151
f 38 138 637
f 69 576 424
f 357 496 171
f 418 362 441
f 146 12 274
f 551 646 190
f 469 674 377
f 391 519 465
f 610 695 648
f 368 648 472
f 504 328 677
f 684 642 414
f 347 381 689
f 475 437 358
f 337 480 108
f 306 266 628
f 130 352 331
f 602 597 116
f 592 605 388
f 527 565 371
f 125 640 643
f 45 475 606
f 634 383 103
f 681 23 124
f 280 624 381
f 12 72 274
f 23 72 124
f 381 347 279
f 357 171 343
f 521 377 49
f 103 135 594
f 258 366 71
f 561 276 109
f 249 664 287
f 334 145 182
f 641 99 554
f 124 12 137
f 275 277 347
f 277 275 144
f 458 478 586
f 511 387 83
f 297 580 149
f 142 8 67
f 583 589 476
f 167 256 178
f 5 304 389
f 89 176 185
f 589 651 506
f 671 137 110
f 642 333 371
f 332 605 592
f 211 624 421
f 105 271 294
f 412 293 131
f 697 302 33
f 167 101 540
f 119 640 423
f 338 109 276
f 254 44 210
f 151 77 579
f 99 630 373
f 232 425 231
f 252 232 231
f 346 227 170
f 198 170 289
f 347 46 392
f 446 391 465
f 507 642 488
f 135 383 271
f 448 477 178
f 529 648 695
f 591 185 176
f 145 334 191
f 186 121 668
f 485 528 330
f 528 431 16
f 16 396 659
f 169 475 358
f 69 523 40
f 550 327 679
f 239 240 388
f 476 542 583
f 191 334 509
f 43 479 422
f 331 399 267
f 15 477 381
f 130 331 267
f 89 443 526
f 491 411 558
f 134 495 34
f 166 604 526
f 524 113 299
f 400 662 535
f 52 402 358
f 484 372 28
f 566 96 409
f 359 412 312
f 309 632 248
f 372 691 148
f 699 444 384
f 638 160 340
f 266 627 628
f 689 381 477
f 510 494 500
f 614 82 321
f 622 615 590
f 130 8 257
f 1 578 21
f 626 463 543
f 72 23 166
f 82 614 688
f 503 30 83
f 544 258 291
f 110 137 12
f 507 258 164
f 463 513 493
f 574 635 85
f 463 436 513
f 626 680 463
f 221 437 475
f 694 690 682
f 635 574 441
f 11 399 472
f 215 409 303
f 580 233 149
f 592 45 606
f 278 282 595
f 39 92 318
f 526 228 166
f 189 650 571
f 399 11 579
f 595 427 278
f 34 62 134
f 605 239 388
f 606 475 169
f 562 386 246
f 332 403 219
f 695 560 529
f 243 681 314
f 591 339 439
f 138 326 479
f 314 304 243
f 293 412 359
f 191 285 145
f 28 372 148
f 471 491 558
f 574 491 471
f 689 46 347
f 80 230 665
f 186 512 121
f 559 529 397
f 431 406 639
f 284 672 225
f 248 214 207
f 669 335 61
f 354 570 297
f 493 206 461
f 372 494 225
f 59 644 282
f 662 400 658
f 64 360 370
f 467 67 666
f 648 529 472
f 304 314 351
f 13 27 187
f 241 134 315
f 2 203 630
f 134 241 495
f 184 340 160
f 453 183 568
f 323 456 34
f 622 676 330
f 693 552 648
f 318 92 446
f 565 512 545
f 270 33 302
f 579 36 151
f 197 430 250
f 575 511 609
f 281 476 208
f 184 686 461
f 184 500 686
f 596 670 367
f 481 37 516
f 407 422 479
f 338 309 208
f 607 244 336
f 183 453 569
f 643 56 253
f 617 628 401
f 388 240 45
f 15 127 178
f 222 338 208
f 347 392 335
f 458 104 74
f 127 116 178
f 305 447 618
f 559 472 529
f 91 211 421
f 417 245 299
f 318 446 426
f 583 75 589
f 234 41 286
f 693 334 466
f 123 64 6
f 306 369 200
f 419 339 591
f 669 98 428
f 118 141 661
f 415 564 495
f 203 214 373
f 280 150 624
f 533 46 689
f 126 301 196
f 430 308 250
f 351 314 154
f 365 390 502
f 414 371 497
f 253 545 512
f 153 301 126
f 266 468 627
f 504 688 79
f 37 515 598
f 576 518 423
f 508 255 319
f 116 163 167
f 348 344 345
f 214 203 2
f 421 624 503
f 629 676 18
f 612 552 604
f 617 492 369
f 683 468 266
f 287 119 249
f 573 614 623
f 338 222 593
f 629 163 116
f 36 665 230
f 511 575 489
f 316 530 674
f 575 609 144
f 578 155 506
f 109 338 593
f 643 640 631
f 630 10 51
f 551 572 221
f 669 349 335
f 144 263 575
f 392 46 599
f 54 143 22
f 144 438 263
f 79 111 647
f 407 74 104
f 519 402 65
f 154 671 694
f 403 141 219
f 581 141 118
f 383 634 132
f 232 252 497
f 618 470 305
f 135 103 383
f 142 67 467
f 379 675 555
f 266 306 683
f 65 25 519
f 308 385 115
f 535 112 35
f 482 384 444
f 245 3 288
f 518 576 324
f 36 521 665
f 624 150 30
f 535 259 400
f 609 511 150
f 3 603 100
f 411 491 374
f 150 144 609
f 418 679 698
f 134 62 97
f 132 271 383
f 632 373 214
f 13 4 27
f 96 566 327
f 375 100 469
f 230 636 197
f 683 57 468
f 240 678 45
f 116 127 602
f 77 467 666
f 683 90 57
f 121 235 668
f 81 324 434
f 444 596 496
f 614 549 227
f 255 508 171
f 195 268 130
f 558 411 440
f 569 453 188
f 318 426 403
f 200 683 306
f 649 403 55
f 92 391 446
f 388 45 592
f 681 124 314
f 81 339 419
f 307 340 206
f 337 108 644
f 354 297 554
f 503 83 547
f 692 202 31
f 227 623 614
f 442 464 625
f 308 430 385
f 614 573 688
f 650 436 571
f 101 18 133
f 263 349 695
f 133 18 498
f 592 606 39
f 644 59 337
