# OBJ export from PMP
v -0.0609654188 0.1700211316 -0.0608393885
v -0.0502714403 0.1433656365 0.0015153000
v -0.0708876625 0.1440461874 -0.0149084805
v -0.0647315830 0.1541006714 -0.0404648185
v -0.0661781207 0.1421834975 -0.0093766302
v -0.0630566403 0.1434164941 -0.0074907700
v -0.0642308295 0.1487780660 -0.0258997101
v -0.0720835999 0.1496555060 -0.0392658599
v -0.0109066498 0.1764930040 -0.0292463005
v -0.0843141600 0.1095726267 0.0037097300
v -0.0498964116 0.1467085928 -0.0018614200
v -0.0282188207 0.1575814337 -0.0109994896
v -0.0637311414 0.1657703668 -0.0601036102
v -0.0615303814 0.1403762847 -0.0062734699
v -0.0704132318 0.1412920058 -0.0084590800
v -0.0667136535 0.1535882354 -0.0490970984
v -0.0656969398 0.1456163079 -0.0189747103
v -0.0571805499 0.0409188308 0.0463013388
v -0.0620959811 0.1638832390 -0.0583859310
v -0.0286576301 0.0350833796 0.0505494401
v -0.0534257889 0.0345600210 0.0427824184
v -0.0212169494 0.1588793844 -0.0046923701
v -0.0564729497 0.1577840596 0.0081786504
v -0.0528020598 0.0413198583 0.0461697988
v -0.0851759613 0.1170680895 0.0481394194
v -0.0297487509 0.0365398601 0.0524933115
v -0.0035438901 0.0426597707 0.0475415289
v -0.0094780400 0.0359775983 0.0494342111
v -0.0651466474 0.0359456502 0.0397750810
v -0.0569010004 0.0454370007 0.0432369597
v -0.0412448794 0.0430988893 0.0421295613
v -0.0686025992 0.1499227732 -0.0400513485
v -0.0218669698 0.0440229289 0.0532438010
v -0.0369962491 0.1689930111 0.0013256300
v -0.0393432118 0.0354401805 0.0424925610
v -0.0511766002 0.0680618808 0.0373983309
v -0.0711129680 0.0627514720 0.0087995501
v -0.0585814416 0.0578014590 0.0134295402
v -0.0889794677 0.1145086884 0.0284460299
v -0.0224919505 0.0465136208 0.0518853106
v 0.0113474401 0.0362130217 0.0446522795
v -0.0748982206 0.1145886332 0.0507764816
v -0.0309846997 0.0381918997 0.0323900990
v -0.0348346010 0.0347214006 0.0345782004
v -0.0772088766 0.1071588695 0.0347382911
v -0.0070012598 0.0464165211 0.0474855416
v -0.0713028312 0.1132536307 0.0494445302
v -0.0911887810 0.1158889309 0.0247055404
v 0.0164393503 0.0356351100 0.0412810408
v -0.0620190017 0.0343431793 0.0318832807
v -0.0743628070 0.0724370480 0.0314300396
v -0.0572196282 0.0570004694 0.0049175802
v -0.0670064017 0.0632928684 -0.0017493900
v 0.0052496898 0.0395070985 0.0332712010
v -0.0264689401 0.0478164293 0.0493225902
v 0.0085287802 0.0348879993 0.0362651013
v -0.0133734299 0.0478924103 0.0478838496
v 0.0089808200 0.0376394019 0.0339008011
v -0.0418955013 0.0336682983 0.0269399993
v -0.0589999817 0.0737515464 0.0411970802
v -0.0227492694 0.0498838797 0.0466055200
v -0.0731102079 0.1484716833 -0.0287484694
v -0.0802943110 0.0717024282 0.0159952994
v -0.0636649728 0.0660478398 0.0318280794
v 0.0069064298 0.0390042700 0.0295485109
v 0.0324340016 0.0453339703 0.0303167608
v -0.0758241415 0.1079490036 0.0371287502
v -0.0415037088 0.1674851179 0.0032765900
v -0.0784498006 0.1098883227 0.0425179191
v -0.0343031883 0.0505201519 0.0382860191
v -0.0366651006 0.0353041999 0.0230320003
v -0.0617773905 0.0340178609 0.0169005804
v 0.0013773100 0.0523027107 0.0531490110
v -0.0512433387 0.0642391965 0.0342580415
v 0.0080723800 0.0515741408 0.0517735593
v 0.0100874202 0.0370476916 0.0308225006
v -0.0877734721 0.1118141189 0.0371443108
v 0.0289483909 0.0391600206 0.0272348095
v 0.0215035100 0.1256398857 0.0212526191
v 0.0131969796 0.0348357894 0.0316309817
v -0.0872404128 0.1196721271 -0.0001781300
v 0.0388831012 0.0410329811 0.0249765702
v 0.0083833002 0.0347486995 0.0240573101
v -0.0466861799 0.0545707196 0.0375873707
v -0.0540190004 0.0333098993 0.0158479996
v -0.0010974400 0.0381478406 0.0204270091
v -0.0198757704 0.0516077094 0.0461420007
v -0.0265804995 0.0377425998 0.0157053005
v -0.0162491892 0.0542921089 0.0503069386
v -0.0357116014 0.0358916000 0.0155028999
v -0.0298031997 0.0342869982 0.0163531005
v -0.0346923284 0.0338287093 0.0124385804
v 0.0490157194 0.0445736311 0.0206594504
v -0.0790037885 0.1285054982 0.0531493388
v -0.0392219983 0.0363261998 0.0107899001
v -0.0591297001 0.1503971219 0.0344895385
v -0.0656917915 0.1496181786 0.0381609797
v 0.0174901001 0.0346462987 0.0220408998
v 0.0009171400 0.0348033793 0.0156346895
v -0.0471042991 0.0355494991 0.0080803903
v -0.0724740103 0.0362559296 0.0015532600
v -0.0306148399 0.0544126518 0.0366942883
v -0.0456759408 0.0337036401 0.0064300299
v 0.0372496098 0.0375099182 0.0148158204
v -0.0002426400 0.0545360185 0.0546411984
v -0.0036953799 0.0381727815 0.0130468002
v -0.0709618330 0.0343457311 -0.0007837400
v 0.0355153903 0.0504495688 0.0314398296
v 0.0222529005 0.0365833007 0.0139797004
v -0.0003084500 0.0354624800 0.0082607204
v -0.0444894396 0.0610777102 0.0395453200
v -0.0013896900 0.0386513583 0.0023966499
v -0.0790877268 0.1704448760 -0.0413731709
v -0.0373144001 0.0336330011 0.0045724702
v 0.0239307508 0.0348167084 0.0177391600
v 0.0051981700 0.0570179895 0.0534235314
v 0.0251308009 0.0345469117 0.0110125802
v 0.0335683003 0.1152371615 0.0217984095
v 0.0049172002 0.0339970998 0.0091666104
v -0.0670783371 0.0338401012 -0.0061688302
v -0.0085308300 0.0601594187 0.0553089492
v -0.0004402400 0.0583434105 0.0544834100
v -0.0910787284 0.1150603667 0.0401418097
v 0.0356060117 0.0365266390 0.0098155299
v -0.0412710011 0.0338554010 -0.0018800800
v 0.0039677802 0.0342002101 0.0049754502
v -0.0380665995 0.0385186002 -0.0073079602
v 0.0237531308 0.0346707106 0.0039885300
v 0.0153227998 0.0362396985 0.0036628500
v 0.0163634699 0.0343947895 0.0022948601
v 0.0199681204 0.0348439887 -0.0018984900
v -0.0770043135 0.1552128047 0.0245347694
v -0.0280013606 0.0610754192 0.0374712087
v 0.0075208200 0.0367334001 -0.0067614298
v 0.0038149201 0.0390244685 -0.0080827298
v -0.0278514698 0.0384043306 -0.0172104202
v -0.0334073417 0.0375770405 -0.0161581896
v -0.0478719994 0.0341362990 -0.0154182501
v 0.0044522602 0.0377051905 -0.0129576502
v -0.0410915092 0.0340059996 -0.0119975396
v -0.0064292401 0.1220109016 0.0357408896
v 0.0104736397 0.0347426012 -0.0112628704
v 0.0485100113 0.0617807582 0.0303472504
v -0.0351991318 0.0338352099 -0.0205082893
v -0.0391855910 0.0630745292 0.0413828902
v 0.0017323900 0.0344596617 -0.0166078694
v -0.0424659811 0.0341891013 -0.0272606499
v 0.0026645199 0.0627000108 0.0565252118
v -0.0139916101 0.1196257472 0.0362515412
v 0.0139503498 0.0348800011 -0.0186128691
v -0.0053486298 0.0338290110 -0.0226004291
v -0.0167175308 0.0336116403 -0.0246254206
v -0.0331643894 0.0336065404 -0.0297218803
v -0.0358748697 0.0347759984 -0.0308452006
v -0.0258099101 0.0888895914 -0.0350822508
v -0.0419793203 0.0696299821 0.0418249294
v -0.0187721699 0.0898380429 -0.0369917117
v -0.0148242498 0.0872888416 -0.0383170694
v -0.0576769412 0.0862583369 -0.0210983194
v -0.0457520783 0.1634075344 -0.0081780497
v 0.0406358987 0.0615748614 0.0298412498
v -0.0668390319 0.0621705092 0.0215768404
v 0.0375529602 0.1068529114 0.0263034701
v -0.0786407292 0.1638723761 -0.0283877905
v -0.0619962402 0.1476148367 -0.0043256800
v -0.0555226095 0.0819275975 -0.0213537905
v -0.0354701802 0.0801960677 -0.0223259106
v -0.0272331908 0.0805709511 -0.0366206691
v -0.0332023203 0.1057832018 -0.0206475891
v -0.0004271000 0.0829473734 -0.0363806598
v -0.0174205806 0.0696594864 0.0540895313
v -0.0357498005 0.0772483498 -0.0193740204
v -0.0797393471 0.1360685378 -0.0041482099
v -0.0001128900 0.0692882016 0.0565797910
v -0.0363093317 0.1187694296 0.0306740198
v -0.0703257993 0.0633677691 0.0198091809
v -0.0158583503 0.0811655521 -0.0391855910
v 0.0428311117 0.0855560377 0.0278737601
v 0.0076016001 0.0794359222 -0.0337145589
v -0.0442311317 0.0776641294 -0.0190265793
v -0.0656098798 0.0758600086 -0.0167500600
v -0.0379876606 0.1075145304 -0.0199757591
v -0.0579895414 0.0740178823 -0.0175223202
v -0.0137749501 0.0708879530 0.0546956286
v 0.0115740504 0.0748605728 -0.0313838609
v 0.0076962500 0.0723756030 0.0560621507
v -0.0384933688 0.0728398710 -0.0175022297
v -0.0073834900 0.0747996196 -0.0372238308
v 0.0254729297 0.0740944967 -0.0249385405
v -0.0479574390 0.0725429878 -0.0161069892
v -0.0642495230 0.1604502350 -0.0570414700
v -0.0752726495 0.1268009841 -0.0080241701
v -0.0352630392 0.0710676536 -0.0180118605
v -0.0261201002 0.0711774826 -0.0354515314
v -0.0230359901 0.0727784634 -0.0380726382
v 0.0064980499 0.0707918704 -0.0335253105
v 0.0165739600 0.1189015284 0.0350423008
v -0.0893850997 0.0990240425 0.0175218303
v -0.0516734608 0.0668506622 -0.0121203503
v 0.0062881098 0.0654163510 -0.0325630382
v -0.0198189206 0.1650949419 -0.0176089797
v -0.0042439401 0.1291490197 0.0258292295
v -0.0561478883 0.0619215518 -0.0057541099
v -0.0177393593 0.0662608296 -0.0376573093
v 0.0504000112 0.0672924817 0.0268514697
v 0.0145190600 0.0645955428 -0.0298556909
v 0.0228320006 0.0670825690 -0.0262975097
v -0.0107364897 0.1299028546 0.0109937899
v -0.0271134600 0.1733215600 -0.0185388904
v -0.0539930388 0.1449865550 -0.0011093400
v -0.0786095485 0.0696568713 0.0118107405
v -0.0450083986 0.0627239421 -0.0133904498
v -0.0324919112 0.0571963489 -0.0121047301
v -0.0063734599 0.0721843392 0.0579729788
v 0.0223399997 0.0584922284 -0.0260141194
v -0.0144669097 0.0631360188 -0.0368658714
v 0.0384633988 0.0549348183 -0.0061822501
v 0.0443312600 0.0558180101 -0.0060362699
v -0.0526263602 0.0600437596 -0.0089566903
v -0.0710482076 0.1516108811 -0.0446792692
v -0.0464712307 0.0513043404 -0.0098299803
v -0.0349982902 0.0523315594 -0.0103473803
v 0.0199724901 0.0544097088 -0.0271082297
v -0.0036481400 0.0518690012 -0.0314579383
v 0.0332056209 0.0510206483 -0.0072382502
v -0.0376138203 0.0495347716 -0.0116261402
v -0.0328755192 0.0516776294 -0.0108886501
v 0.0410732590 0.0887243226 -0.0097879404
v 0.0436731800 0.0501622297 -0.0059843501
v -0.0655936003 0.1766571105 -0.0605047308
v 0.0059436001 0.0509766601 -0.0291193593
v -0.0756431594 0.0994404480 -0.0119276103
v -0.0825065076 0.1276548654 -0.0046796398
v -0.0032479200 0.0757106915 0.0587146394
v -0.0260494500 0.0476925001 -0.0261495002
v -0.0212008394 0.0466570891 -0.0279513206
v -0.0137537699 0.0518650599 -0.0322434790
v -0.0087946998 0.0470568500 -0.0298816301
v 0.0037308901 0.0481279902 -0.0290259700
v 0.0139640402 0.0455791689 -0.0247065108
v -0.0315358303 0.0447404087 -0.0280794092
v -0.0177954808 0.0774861872 0.0560872406
v -0.0157484096 0.0450438596 -0.0278777909
v -0.0609599203 0.0941730365 -0.0190156698
v 0.0027381401 0.0791056827 0.0567191914
v -0.0081088403 0.0434390604 -0.0261400696
v 0.0254569501 0.0394838899 -0.0040251398
v 0.0353498682 0.0412570499 -0.0028075101
v -0.0470800996 0.0407006890 -0.0118698301
v -0.0651561469 0.1403453648 -0.0076848599
v -0.0455901213 0.1085382625 -0.0187966805
v -0.0068478198 0.0364445411 -0.0251771193
v -0.0548133217 0.0981024802 -0.0214253701
v -0.0474018194 0.0755503401 0.0426301397
v 0.0120092202 0.0359618999 -0.0217357501
v -0.0395176485 0.0781277791 0.0429186188
v -0.0162404496 0.1251217723 -0.0036499701
v 0.0564552508 0.0699514896 0.0049191699
v -0.0059405998 0.0790382400 0.0579698309
v -0.0507928617 0.1271648705 -0.0048183198
v -0.0328217112 0.1230050027 -0.0059088301
v 0.0344001800 0.1050300002 -0.0102249198
v 0.0282048006 0.0643912703 -0.0206980407
v 0.0072129602 0.1272195727 -0.0052073700
v -0.0453344509 0.1289149374 0.0015819099
v -0.0521242693 0.1292983145 -0.0041187000
v -0.0308006499 0.0800684169 0.0417980701
v -0.0650473684 0.1799914837 -0.0597585998
v -0.0477436297 0.1206443235 -0.0128129898
v 0.0074553299 0.1119678989 -0.0195542593
v -0.0489820689 0.1298064739 -0.0013229400
v -0.0233701691 0.0933927596 -0.0320318192
v -0.0337154083 0.1115156636 -0.0180784408
v -0.0422969013 0.0362919196 -0.0272535998
v -0.0506872013 0.0359358713 -0.0123807900
v -0.0402516797 0.1182753071 -0.0136740804
v -0.0568106584 0.0338739417 -0.0111663099
v 0.0204615202 0.1151537225 -0.0131037803
v -0.0552383400 0.0819994509 0.0449847691
v 0.0500008203 0.0616120696 -0.0034649901
v -0.0017359200 0.0922441706 -0.0343104601
v 0.0283221994 0.1084795669 -0.0126233902
v -0.0601273403 0.1204139069 -0.0093791103
v -0.0861614794 0.1083859429 0.0182449203
v -0.0562151410 0.1413921267 -0.0028027301
v -0.0224137008 0.0832835212 0.0555907004
v -0.0169931799 0.0825558230 0.0575238802
v 0.0531240702 0.0590123795 -0.0028853801
v -0.0598312207 0.0428422615 -0.0066469102
v -0.0090179304 0.1252803057 -0.0077912002
v 0.0075446698 0.0916821510 -0.0316431411
v -0.0770566612 0.1319346875 0.0524624288
v 0.0537351891 0.0720273480 0.0068009999
v 0.0094135897 0.1212190166 -0.0129377795
v 0.0062723099 0.0999103710 -0.0222968906
v -0.0649921522 0.0845509022 0.0441200584
v 0.0315554291 0.0924847275 -0.0182042792
v 0.0125178397 0.1047537774 -0.0199159607
v 0.0330813415 0.1027338207 -0.0127872098
v -0.0594666712 0.1474395543 -0.0018885400
v -0.0888922587 0.0992091000 0.0095703201
v 0.0577446409 0.0641584396 0.0026277599
v -0.0083562499 0.1137360036 -0.0182398092
v -0.0701128021 0.1179035008 0.0527141616
v -0.0432268307 0.0462635718 -0.0117717301
v -0.0708313882 0.1225442514 0.0532748811
v 0.0451338105 0.0936306864 0.0062336801
v 0.0485126711 0.0717981830 0.0060005002
v -0.0490008406 0.0862216800 0.0453520417
v -0.0317141004 0.0351115316 -0.0306589901
v -0.0611139797 0.1530521214 0.0009998300
v -0.0121719800 0.1812510192 -0.0290611703
v -0.0490200706 0.1177129298 0.0315814316
v -0.0085369796 0.0999212191 -0.0243510697
v -0.0171421692 0.0980574563 -0.0249243304
v -0.0254117306 0.1247253269 0.0001288600
v 0.0190765504 0.0918706208 -0.0248902291
v -0.0569964014 0.1574171335 0.0006024400
v -0.0110967699 0.1820232421 -0.0280424505
v -0.0551397502 0.1105160117 -0.0176727399
v -0.0631173402 0.1542543769 0.0029730401
v -0.0154514704 0.1859759986 -0.0247958694
v 0.0035078200 0.0863395184 0.0570483208
v -0.0283987001 0.1807065010 -0.0078469496
v -0.0336234905 0.1184042767 -0.0119274799
v 0.0152356802 0.0949779004 -0.0244371407
v 0.0457694307 0.0646288022 -0.0012166100
v 0.0420806892 0.0634806305 -0.0025405299
v 0.0158001501 0.1199655831 -0.0114156296
v 0.0066509601 0.0881445035 -0.0329458117
v -0.0104111703 0.0945923403 -0.0337848514
v -0.0420563892 0.0867115185 0.0425346307
v -0.0330584608 0.0861855000 0.0425603501
v -0.0292419102 0.0904533565 0.0442366116
v -0.0829428136 0.0932916999 -0.0061856299
v -0.0066210600 0.0904152468 0.0568797514
v -0.0760466978 0.0910372511 -0.0136431502
v -0.0923319235 0.1252388656 0.0091589503
v 0.0401948094 0.1023159698 -0.0020048600
v -0.0696055889 0.1549076289 -0.0501886718
v -0.0511214100 0.1637412459 -0.0026640501
v -0.0771348923 0.1515122503 -0.0055823000
v -0.0529356413 0.0909135193 0.0445688702
v -0.0893987119 0.0895389989 0.0116455499
v -0.0914904699 0.1454317868 0.0222772192
v -0.0880914479 0.0877415836 0.0048489901
v -0.0370537899 0.1271509379 0.0003547400
v -0.0849649012 0.0899625421 -0.0030068001
v -0.0601135418 0.0355504416 0.0449075811
v -0.0125018200 0.1063440889 -0.0223601907
v -0.0746387988 0.1439848393 -0.0071504600
v -0.0911608189 0.1414436251 0.0156739093
v -0.0827763900 0.0834308937 -0.0043687001
v -0.0867763981 0.0843448564 0.0124190301
v -0.0797237381 0.0842266604 -0.0087608602
v 0.0286756996 0.1195959970 0.0245459098
v -0.0312257092 0.0804131031 -0.0321823210
v -0.0626151115 0.0911268815 0.0450907312
v -0.0175878704 0.1149131805 -0.0172050409
v -0.0152410902 0.0918217227 0.0558172315
v -0.0309787709 0.0770208612 -0.0328164883
v -0.0711565092 0.1633512527 -0.0453605317
v -0.0815427601 0.0779506564 0.0267272796
v -0.0860615000 0.0799311027 0.0144407796
v -0.0837404802 0.0772402734 0.0046673301
v -0.0773884133 0.1465642601 -0.0043543000
v -0.0745775476 0.1516404152 -0.0286479909
v 0.0008481800 0.1167002469 -0.0173370894
v -0.0902057216 0.1494777501 0.0130350897
v -0.0356422402 0.0926174074 0.0442384891
v -0.0798587874 0.0727550387 0.0030420199
v -0.0776188299 0.0739991292 -0.0053263502
v -0.0008244800 0.0951651186 -0.0320563205
v -0.0089830300 0.1692644954 -0.0226834808
v 0.0173729006 0.1024603695 -0.0214876998
v -0.0647604316 0.1531158835 -0.0020371201
v -0.0693685114 0.0952427909 0.0421289988
v -0.0021999001 0.1121588126 -0.0196586605
v -0.0708722919 0.1161163822 -0.0079563698
v -0.0265614297 0.0932895094 0.0449754186
v -0.0666428506 0.1604087502 -0.0568426810
v -0.0088691600 0.0954002589 0.0544459783
v -0.0012188700 0.0962017477 0.0538159087
v -0.0290548205 0.0610841215 -0.0249182303
v 0.0113480100 0.0982437506 -0.0230242498
v -0.0784364566 0.1392801255 0.0483293608
v -0.0903369114 0.1311983019 0.0381387882
v -0.0942377076 0.1261541843 0.0222014505
v -0.0891464576 0.1365049928 0.0259527806
v -0.0574916303 0.0595301613 -0.0010786100
v -0.0245399307 0.1800586432 -0.0187269505
v -0.0902417004 0.1357599348 0.0141491601
v 0.0169734508 0.0971066207 0.0474409200
v -0.0929895267 0.1309230626 0.0199192893
v -0.0900093392 0.1327808201 0.0059220600
v -0.0486179888 0.0964526981 0.0441830605
v -0.0544636585 0.0553574488 0.0103268400
v -0.0942435488 0.1220743209 0.0235684700
v -0.0888753831 0.1516944319 0.0200865809
v -0.0556739606 0.0569838509 -0.0033510400
v -0.0290095806 0.0512652881 -0.0221757796
v -0.0502904989 0.0490989313 0.0171647798
v -0.0568978898 0.0496555716 -0.0015319000
v 0.0459973291 0.0698144510 0.0030143301
v -0.0544207208 0.0478365198 -0.0059186900
v -0.0735026002 0.1687193364 -0.0447917990
v -0.0526254401 0.0504346192 0.0290467404
v -0.0788761079 0.1534701139 0.0039875801
v -0.0776503980 0.1565801203 -0.0165991504
v -0.0575206205 0.1587760001 0.0041621202
v -0.0523898192 0.0454491302 0.0176863000
v -0.0901995376 0.1165750623 0.0056754900
v -0.0852366164 0.1107735634 0.0245376695
v 0.0071935998 0.0988594666 0.0484195091
v -0.0922808573 0.1276205331 0.0297516696
v -0.0395198986 0.1738585532 -0.0075752600
v 0.0077389800 0.1314750016 0.0116829704
v 0.0008090500 0.1163331866 0.0401675589
v -0.0726525709 0.1656791866 -0.0182124805
v -0.0910036489 0.1488572508 0.0215070304
v -0.0263037197 0.1251887530 0.0173929799
v -0.0635381266 0.0435240194 0.0379740112
v -0.0414608307 0.0985447988 0.0417786203
v -0.0628326014 0.0451827496 0.0346228890
v -0.0544734187 0.0459375083 0.0236125998
v -0.0223619696 0.0982076079 0.0447659418
v -0.0188705102 0.0989731997 0.0444892794
v -0.0754277334 0.1520121247 -0.0143936900
v -0.0730011463 0.1182671189 0.0530345887
v -0.0831094310 0.1026544496 -0.0032933401
v -0.0800663978 0.1503964961 0.0006051800
v -0.0600677691 0.0414194986 0.0229532793
v -0.0733866394 0.1546341777 -0.0299438294
v -0.0673151612 0.0440340005 0.0015741800
v -0.0769873410 0.1536937505 -0.0022970799
v -0.0590587594 0.1004125997 0.0427251309
v -0.0756406933 0.1593039930 -0.0269084591
v -0.0291511808 0.1019736901 0.0426330604
v -0.0115997205 0.1010781303 0.0441916585
v -0.0666348785 0.0404303111 -0.0050180699
v -0.0775871798 0.1771787554 -0.0502210893
v -0.0449930318 0.0390170105 -0.0210978296
v -0.0278901998 0.1044070274 -0.0228309203
v 0.0168328006 0.1033748686 0.0452872701
v -0.0862527266 0.1010684595 0.0254137702
v -0.0721419528 0.1053668484 0.0375232100
v -0.0812214389 0.0810032487 0.0312558413
v -0.0841508284 0.1295501292 0.0504836999
v -0.0553089790 0.1036539376 0.0415166914
v -0.0442432389 0.1043172628 0.0413399898
v -0.0772160068 0.0855948776 0.0374207683
v -0.0604835786 0.1556797475 0.0043343799
v -0.0078240000 0.1092411205 -0.0221856702
v -0.0270463098 0.0670144483 0.0396721400
v 0.0303003900 0.1155364513 0.0286850091
v -0.0882062316 0.0944857001 0.0237440094
v -0.0760032609 0.1636134386 -0.0180211104
v -0.0559282489 0.0359173082 0.0463761017
v -0.0202683806 0.0622668117 0.0482121184
v -0.0838035792 0.1256110072 0.0504404902
v -0.0157159008 0.0608229712 0.0523654409
v -0.0460762903 0.1681971848 0.0007374400
v 0.0119783496 0.1040362865 0.0453963093
v -0.0521306396 0.0563029684 0.0266724601
v -0.0529098213 0.0570430718 0.0209884103
v -0.0514585488 0.0558781512 0.0159003492
v -0.0211267807 0.1093228981 0.0407153182
v -0.0280542392 0.0545510314 0.0367868505
v -0.0926542804 0.1208402514 0.0416296497
v 0.0089403698 0.1071064472 0.0412434004
v -0.0866051018 0.1322680712 0.0467830189
v -0.0542013682 0.1145173013 0.0348439887
v -0.0441112407 0.0928839892 -0.0223732106
v -0.0693824068 0.1086578667 0.0375077985
v -0.0679027736 0.0878172293 0.0435269885
v -0.0637824014 0.1103726998 0.0375797898
v -0.0507493913 0.1092868224 0.0382975787
v -0.0093936203 0.1074281335 0.0434545688
v -0.0789356306 0.1481722742 0.0394630693
v -0.0834181383 0.0941274390 0.0308984499
v 0.0201312900 0.1073277816 0.0403238386
v -0.0887637287 0.1194493771 0.0465600900
v -0.0503993183 0.0518313311 0.0340374000
v -0.0859860480 0.1467090249 0.0348270312
v -0.0501687191 0.0534622595 0.0162554402
v -0.0859187692 0.1426341236 0.0398498103
v -0.0307701807 0.1159731299 0.0328588001
v -0.0158628002 0.0970216170 0.0501393601
v -0.0294283200 0.0931666195 -0.0249318592
v -0.0577131100 0.0487178192 0.0072765099
v -0.0497544184 0.0497382991 0.0370371118
v -0.0721450374 0.0915564522 0.0414947793
v -0.0203214996 0.0939995721 0.0515885390
v -0.0800503716 0.1167040616 0.0487624593
v -0.0551741309 0.0483838804 0.0385177806
v -0.0673064664 0.0441768318 0.0075958301
v -0.0249820091 0.0817776471 0.0534210615
v 0.0037667200 0.1124054715 0.0414947085
v -0.0628296211 0.1518947929 -0.0092373397
v 0.0258550607 0.0896106586 -0.0227018408
v -0.0757294372 0.1035402566 0.0360709690
v -0.0739453733 0.0843748823 -0.0151544902
v -0.0312178805 0.0438475087 0.0497809201
v -0.0609023608 0.0434295014 0.0426785313
v -0.0555304512 0.1490553170 -0.0019602100
v 0.0166884605 0.0369765982 0.0430006012
v -0.0699973181 0.0420730785 0.0066897799
v -0.0644157603 0.0412838385 0.0282434803
v -0.0289509408 0.0392859392 0.0533090904
v -0.0235743094 0.0370369107 0.0541447513
v -0.0351459607 0.0385859199 0.0477326885
v -0.0391796790 0.0424067415 0.0414760709
v -0.0611256696 0.0377900489 0.0197109003
v -0.0367563106 0.0886633620 -0.0238687992
v -0.0495794713 0.0360965393 0.0459553599
v -0.0651713833 0.0372895002 0.0259537697
v -0.0290472005 0.1255633831 0.0077617699
v -0.0717522278 0.0367893502 0.0086966697
v -0.0313581303 0.1536219865 -0.0046738898
v -0.0629283488 0.0390616618 0.0427076817
v -0.0641608089 0.0359007716 0.0176875703
v -0.0725397319 0.0353992693 0.0070298798
v -0.0386705101 0.1607019901 -0.0123577602
v -0.0667270198 0.0358957686 0.0338494293
v -0.0643002614 0.0350864492 0.0242720507
v -0.0108662099 0.1269169897 0.0275754407
v -0.0896072686 0.1397110522 0.0293085594
v 0.0507816710 0.0721551701 0.0206801798
v 0.0237800702 0.0952229425 0.0463473313
v -0.0228516404 0.0906350389 0.0522804596
v -0.0703597218 0.1690698862 -0.0261442605
v -0.0640672371 0.0901721865 -0.0188555196
v -0.0524201691 0.1531010121 0.0129273701
v 0.0030801999 0.0983073637 0.0505356416
v 0.0009683600 0.1306430250 0.0025865899
v 0.0136776101 0.1296726167 0.0069327401
v 0.0482068509 0.0726985782 0.0169946309
v -0.0666052029 0.1647737473 -0.0206707604
v 0.0288105197 0.0433522910 0.0321577191
v -0.0427641608 0.1572748721 0.0052016200
v 0.0092231901 0.0441250913 0.0450574383
v 0.0150482096 0.0457558408 0.0437938683
v -0.0637572929 0.1025114432 -0.0174844004
v 0.0086784400 0.1289457381 0.0261568800
v -0.0465484895 0.1332076937 0.0168896299
v -0.0662994236 0.1233711913 0.0506159216
v 0.0253435001 0.1237474978 0.0099818800
v 0.0189280193 0.0442496091 0.0430098288
v 0.0258217994 0.0463266112 0.0382772312
v 0.0540164895 0.0728838518 0.0186780095
v 0.0168311093 0.1248714626 0.0284255799
v 0.0217473209 0.1211845577 0.0308788102
v 0.0123193599 0.1290376782 0.0013336200
v 0.0437853597 0.0488036983 0.0313434191
v 0.0474468991 0.0736914128 0.0124300197
v 0.0568475612 0.0720171630 0.0171393808
v -0.0725670606 0.1475322992 0.0417140909
v -0.0782173425 0.1687397510 -0.0335642509
v -0.0868249387 0.1528077573 0.0155214500
v 0.0106297098 0.0467118099 0.0464720204
v -0.0741081610 0.1735572964 -0.0379868411
v 0.0288270507 0.0921333730 0.0439200886
v -0.0566276200 0.1527060568 0.0296290293
v 0.0210697800 0.1249775589 0.0010998100
v -0.0378853902 0.1619971842 0.0002468600
v -0.0220477898 0.1834858656 -0.0120949904
v -0.0307712909 0.1256407499 0.0165947694
v -0.0708635598 0.1613652557 -0.0097324597
v -0.0208911300 0.1859533787 -0.0150373597
v -0.0546423607 0.1552296281 0.0126123996
v -0.0728232190 0.1451060027 -0.0156546794
v -0.0675043613 0.1142408773 0.0480360501
v -0.0162575208 0.1603125036 -0.0096926000
v -0.0639263019 0.1679244041 -0.0407304205
v -0.0416652896 0.1499614120 0.0045405002
v 0.0328199305 0.1165562496 0.0044458602
v 0.0600786917 0.0681292564 0.0114545003
v 0.0308357198 0.1155423373 -0.0031785499
v -0.0430456288 0.1278512180 0.0168422591
v 0.0236779898 0.0514743887 0.0410532691
v -0.0888264477 0.0904833227 0.0212047007
v 0.0559573397 0.0531474091 0.0231977198
v -0.0881302804 0.0975405127 0.0056787999
v -0.0469888002 0.1260080189 0.0269855000
v -0.0172707494 0.1869960129 -0.0199775696
v 0.0192046296 0.0551665090 0.0477221496
v -0.0702222586 0.1514352113 0.0367189087
v 0.0312862694 0.0528638400 0.0369136184
v 0.0466611609 0.0547192283 0.0319768116
v -0.0865619406 0.1424918771 0.0084326798
v -0.0657397211 0.1556533873 0.0260176007
v -0.0926747024 0.1170194522 0.0118895201
v -0.0017976800 0.1311728358 0.0163606592
v 0.0095078396 0.1304186434 0.0207150206
v -0.0418040901 0.1558208168 0.0064548198
v -0.0376064889 0.1242260486 0.0243135300
v -0.0429306403 0.1292843670 0.0092700701
v -0.0313588493 0.1214097664 0.0259710904
v -0.0765955821 0.1775322706 -0.0471180789
v -0.0593753606 0.1199823767 0.0405482389
v 0.0590920784 0.0579569787 0.0202701204
v -0.0600528494 0.1528034955 0.0328876302
v -0.0262917802 0.1596338153 -0.0005184500
v -0.0681924075 0.1743982732 -0.0453658700
v -0.0737480819 0.1553925276 0.0023491699
v -0.0691036507 0.1555947959 0.0016370800
v -0.0495077707 0.1294949949 0.0302592702
v -0.0773827136 0.1534660012 0.0308949891
v -0.0790399611 0.1553744525 0.0151418103
v 0.0335738398 0.0585152619 0.0383109897
v 0.0363850407 0.0569964796 0.0336014591
v -0.0741586983 0.1798727512 -0.0507947505
v -0.0670702979 0.1807268262 -0.0566186197
v -0.0851489082 0.1396552026 0.0024808501
v -0.0374202207 0.0454284996 -0.0242267903
v -0.0493499301 0.1491351873 0.0112740602
v 0.0365238786 0.0819917470 -0.0162295904
v 0.0195370596 0.0600037798 0.0485761389
v -0.0770255700 0.1139676273 -0.0046168100
v -0.0740044490 0.1781852245 -0.0539163202
v -0.0569165386 0.1262351274 0.0394266099
v 0.0338644907 0.0786566883 -0.0176324900
v 0.0407214686 0.0784755275 -0.0082130004
v 0.0407513604 0.1055472866 0.0075074099
v 0.0104060201 0.0591624007 0.0524843708
v -0.0511082709 0.1452021897 0.0142794801
v -0.0112433899 0.1645751446 -0.0182407796
v 0.0456200019 0.0746844336 0.0026073901
v -0.0294601601 0.1555026323 -0.0011914700
v -0.0713055134 0.0738990232 0.0359697789
v -0.0301344004 0.1701132208 -0.0073591601
v -0.0920195803 0.1161153391 0.0358427316
v -0.0560327582 0.1373108327 0.0319705904
v -0.0480236188 0.1442664862 0.0042498601
v -0.0623119287 0.1637110859 -0.0406239890
v -0.0097845700 0.1692848802 -0.0247566607
v -0.0416816995 0.1257511228 -0.0070193298
v -0.0503647588 0.1371576339 0.0019526100
v 0.0539440103 0.0613915510 0.0282685291
v 0.0399096496 0.0681717396 -0.0095698200
v -0.0856321082 0.1246109381 -0.0027335801
v -0.0132534197 0.1662715226 -0.0141203701
v -0.0714483336 0.1810530126 -0.0554785505
v -0.0179689806 0.1807803065 -0.0181034300
v 0.0319093391 0.0646570474 -0.0184734091
v -0.0618796609 0.1600044966 -0.0258062501
v 0.0600935705 0.0656934530 0.0185333192
v 0.0568206199 0.0636911467 0.0252860896
v -0.0328000411 0.1594869941 0.0021962801
v 0.0112121403 0.0665841177 0.0539821796
v 0.0359150805 0.0599163808 -0.0119665097
v 0.0201269500 0.0638513267 0.0479196608
v 0.0359717607 0.0666696131 0.0377813987
v 0.0607788004 0.0616465583 0.0104639903
v 0.0306627695 0.0573003888 -0.0165183693
v 0.0595316403 0.0605046004 0.0058396999
v -0.0859113783 0.1096878722 0.0076582399
v -0.0630698875 0.1589747071 -0.0429518484
v -0.0770395622 0.0719670206 0.0264050700
v 0.0267754607 0.0514234491 -0.0202340595
v 0.0429157913 0.0667077005 0.0269947201
v -0.0687961876 0.0351177193 -0.0052067400
v 0.0528541617 0.0518986695 -0.0006207000
v -0.0178916007 0.1611379981 -0.0067072702
v 0.0569079816 0.0515781306 0.0072538299
v 0.0503181294 0.0527863689 -0.0034166300
v 0.0565248691 0.0501256585 0.0155644901
v 0.0101452405 0.1222167835 0.0347189493
v -0.0615175813 0.1751744896 -0.0606316999
v -0.0521662198 0.1501366049 0.0174487494
v 0.0341264382 0.0970539823 0.0375903882
v -0.0827618614 0.1116234064 0.0442214608
v -0.0494226106 0.1428352445 0.0089728301
v -0.0668172315 0.1195152476 0.0514902212
v 0.0191200804 0.0471677482 -0.0221146792
v 0.0220401101 0.0449924991 -0.0175285004
v 0.0266372599 0.0476071015 -0.0164277405
v 0.0370271802 0.0939496309 -0.0116740400
v 0.0564127304 0.0676599294 0.0239693206
v -0.0612957403 0.1451998800 0.0371378288
v 0.0292077698 0.0474502482 -0.0085081803
v 0.0459418185 0.0481388196 -0.0038715701
v 0.0203568097 0.0436623991 -0.0204562806
v 0.0239112396 0.0980216712 -0.0208072904
v 0.0398996808 0.0702948198 0.0327200182
v -0.0627631322 0.1377801150 0.0366785899
v -0.0158154406 0.1750493795 -0.0186541602
v -0.0922689885 0.1147515625 0.0170173794
v -0.0009496400 0.1014111117 0.0442900695
v -0.0637129173 0.1127424985 0.0380067602
v -0.0095837200 0.1742610186 -0.0283907596
v 0.0209918693 0.0693354532 0.0490035415
v 0.0256585293 0.0705504566 0.0445399284
v 0.0487491302 0.0452650003 0.0023023500
v 0.0529879592 0.0477476902 0.0050420002
v -0.0092489300 0.1772585064 -0.0282701999
v -0.0623725690 0.1531304121 -0.0289971195
v -0.0111836996 0.1644999981 -0.0161516909
v 0.0216211099 0.0376572385 -0.0047021601
v -0.0303514209 0.1644815803 -0.0053291400
v 0.0466932803 0.0424653217 0.0065649501
v 0.0221929196 0.0367753208 -0.0020919300
v 0.0443265401 0.0908181220 0.0220975205
v 0.0172098000 0.0352593996 -0.0146851595
v -0.0759177804 0.1499768943 -0.0168420505
v -0.0615112185 0.1237356514 0.0430626795
v 0.0387855284 0.0949542969 0.0325202197
v -0.0924992263 0.1213150024 0.0292562004
v 0.0327564701 0.0889691263 0.0422154516
v 0.0125344899 0.0895939320 0.0533946306
v 0.0412588306 0.1036108136 0.0026760600
v 0.0437662303 0.0883900225 -0.0035708800
v 0.0384135917 0.0874899328 0.0351858512
v -0.0530781783 0.1375468820 0.0282664709
v 0.0287344009 0.1036005318 0.0380352400
v 0.0201531295 0.1184971929 0.0342712514
v 0.0131891202 0.0842111781 0.0530658290
v -0.0291772895 0.1761995852 -0.0056241099
v 0.0308850408 0.0789994821 0.0433887690
v 0.0178974494 0.0795165524 0.0527595282
v -0.0711353794 0.1381765604 0.0478539616
v -0.0642874166 0.1346362531 0.0399456397
v -0.0466535315 0.1591782421 0.0078019002
v -0.0547314584 0.1426722854 0.0289804805
v 0.0463516712 0.0740795210 0.0183543209
f 465 162 38
f 466 465 38
f 397 466 38
f 612 561 604
f 52 397 38
f 92 90 95
f 146 144 152
f 144 146 136
f 142 126 134
f 32 220 16
f 76 65 86
f 556 679 647
f 569 416 324
f 137 144 136
f 279 296 60
f 92 95 103
f 538 376 499
f 92 103 114
f 275 138 277
f 58 54 65
f 114 103 125
f 136 127 137
f 131 130 150
f 489 514 443
f 458 349 21
f 44 21 50
f 44 50 59
f 257 208 535
f 107 101 662
f 103 95 100
f 41 28 56
f 152 144 153
f 142 146 150
f 41 27 28
f 123 482 469
f 137 127 140
f 137 140 144
f 144 147 153
f 82 78 104
f 274 615 241
f 21 349 50
f 127 125 140
f 609 559 132
f 388 394 338
f 208 417 535
f 417 208 593
f 28 510 20
f 125 103 140
f 103 138 140
f 144 140 147
f 349 29 50
f 59 50 85
f 100 85 103
f 50 29 524
f 147 140 138
f 535 417 553
f 154 153 147
f 128 117 130
f 63 365 211
f 202 421 526
f 74 36 60
f 64 74 60
f 583 344 301
f 50 524 525
f 85 50 72
f 72 50 525
f 142 130 126
f 538 568 376
f 48 398 688
f 554 589 66
f 516 525 524
f 292 386 94
f 643 612 613
f 72 525 521
f 138 103 277
f 35 20 26
f 64 60 630
f 568 606 376
f 465 64 162
f 124 104 117
f 85 72 107
f 85 107 103
f 503 509 55
f 162 64 51
f 110 119 99
f 283 192 250
f 64 630 51
f 76 86 83
f 306 292 94
f 49 41 56
f 712 228 339
f 346 364 354
f 38 162 176
f 349 458 18
f 211 365 371
f 388 338 398
f 103 107 120
f 277 103 120
f 104 115 117
f 557 479 386
f 539 78 66
f 176 162 659
f 513 521 525
f 613 612 604
f 98 83 119
f 659 162 51
f 72 522 107
f 42 429 94
f 690 572 474
f 101 522 518
f 524 29 520
f 630 447 51
f 365 364 346
f 52 38 37
f 3 571 17
f 374 698 627
f 83 86 99
f 38 176 37
f 390 52 37
f 83 99 119
f 47 304 42
f 572 47 474
f 150 146 151
f 176 659 63
f 69 47 42
f 474 47 67
f 292 721 386
f 662 120 107
f 42 304 429
f 561 599 558
f 51 447 363
f 348 344 583
f 51 363 659
f 386 721 557
f 390 37 53
f 107 522 101
f 69 42 672
f 47 69 67
f 17 7 6
f 37 176 63
f 99 86 106
f 682 666 663
f 620 643 230
f 131 150 704
f 285 638 271
f 93 104 701
f 593 202 594
f 377 446 492
f 53 37 371
f 304 306 429
f 126 119 110
f 721 97 557
f 65 76 58
f 663 302 665
f 20 44 56
f 432 411 513
f 501 67 45
f 28 20 56
f 511 26 509
f 510 26 20
f 63 659 363
f 37 63 211
f 372 53 371
f 371 37 211
f 78 49 115
f 106 88 112
f 86 43 88
f 25 672 494
f 590 369 431
f 29 349 520
f 594 202 544
f 506 548 41
f 4 16 658
f 104 78 115
f 69 672 77
f 2 634 673
f 69 77 67
f 123 632 39
f 47 572 304
f 146 139 136
f 123 672 25
f 63 364 365
f 630 296 475
f 517 208 257
f 354 344 346
f 678 262 228
f 377 436 446
f 25 482 123
f 75 116 73
f 77 672 123
f 45 67 77
f 63 363 364
f 34 324 68
f 124 128 248
f 39 45 77
f 135 88 136
f 518 72 521
f 377 475 358
f 135 136 139
f 444 481 463
f 647 577 556
f 39 77 123
f 130 142 150
f 142 134 135
f 413 45 39
f 134 126 110
f 48 413 39
f 112 88 135
f 93 554 82
f 112 110 106
f 92 71 90
f 128 130 131
f 475 296 358
f 436 377 358
f 49 80 115
f 284 48 688
f 710 393 383
f 129 130 109
f 124 117 128
f 39 632 48
f 129 119 126
f 49 506 41
f 210 638 285
f 552 551 197
f 567 598 421
f 11 12 2
f 80 76 83
f 80 83 98
f 485 466 397
f 76 56 58
f 115 80 98
f 641 619 81
f 117 115 109
f 139 142 135
f 17 62 8
f 17 8 32
f 201 9 636
f 296 630 60
f 501 446 67
f 118 455 163
f 76 80 56
f 93 82 104
f 109 115 98
f 449 476 436
f 80 49 56
f 75 73 541
f 505 300 311
f 379 192 283
f 394 389 392
f 421 598 149
f 168 155 157
f 194 168 195
f 249 305 442
f 523 209 201
f 235 194 195
f 235 195 236
f 241 235 236
f 643 620 441
f 383 393 534
f 330 281 291
f 628 712 555
f 472 476 449
f 432 513 525
f 525 516 432
f 177 168 157
f 195 168 177
f 279 358 296
f 195 177 204
f 241 236 243
f 147 274 154
f 391 312 209
f 323 336 259
f 662 101 440
f 183 166 190
f 463 470 414
f 120 662 440
f 279 343 358
f 400 203 219
f 195 204 236
f 209 9 201
f 681 225 247
f 275 289 249
f 60 254 279
f 358 343 436
f 518 522 72
f 151 146 152
f 181 199 53
f 641 233 619
f 177 157 158
f 209 312 9
f 502 532 166
f 534 414 689
f 372 181 53
f 236 204 237
f 129 126 130
f 216 204 177
f 82 554 78
f 532 159 166
f 237 204 216
f 224 237 216
f 654 577 647
f 236 237 238
f 24 30 18
f 596 487 598
f 236 238 243
f 5 3 17
f 60 36 254
f 502 355 337
f 691 636 9
f 43 44 91
f 209 160 391
f 216 177 188
f 88 43 91
f 543 232 379
f 243 238 246
f 5 17 6
f 122 148 121
f 143 161 108
f 159 532 244
f 314 453 295
f 701 104 124
f 504 30 495
f 277 120 289
f 1 19 13
f 238 237 224
f 170 177 158
f 188 177 170
f 310 252 152
f 320 379 283
f 143 205 161
f 219 199 221
f 158 281 170
f 246 238 239
f 199 190 212
f 216 188 200
f 305 615 442
f 224 216 200
f 239 238 224
f 180 166 473
f 255 151 252
f 361 357 168
f 453 378 295
f 343 396 436
f 196 188 170
f 192 15 250
f 396 449 436
f 449 477 472
f 477 313 472
f 200 188 196
f 66 589 108
f 255 252 246
f 405 221 305
f 57 46 105
f 196 170 179
f 240 246 239
f 295 298 375
f 224 200 231
f 239 224 231
f 414 444 463
f 505 160 11
f 170 281 330
f 323 710 336
f 221 199 212
f 619 192 379
f 170 330 179
f 309 279 254
f 309 343 279
f 309 396 343
f 477 449 396
f 231 200 206
f 240 239 231
f 336 710 383
f 320 269 251
f 378 270 295
f 24 491 30
f 172 473 514
f 223 231 206
f 240 231 223
f 676 675 660
f 295 270 298
f 254 36 156
f 185 196 179
f 206 200 196
f 341 160 318
f 315 489 443
f 255 246 240
f 519 629 634
f 215 223 206
f 210 11 2
f 179 330 189
f 185 179 189
f 196 185 207
f 206 196 207
f 181 183 199
f 46 541 73
f 110 99 106
f 375 326 385
f 280 288 218
f 683 240 675
f 255 240 683
f 212 180 187
f 84 483 491
f 284 413 48
f 305 221 226
f 215 206 207
f 180 473 172
f 138 275 249
f 605 435 408
f 675 240 223
f 543 379 320
f 253 543 320
f 207 185 189
f 660 675 223
f 505 11 210
f 223 215 660
f 212 190 180
f 473 253 182
f 423 396 309
f 345 369 352
f 373 291 281
f 68 23 723
f 24 31 491
f 558 441 113
f 181 166 183
f 219 221 405
f 160 523 11
f 71 44 59
f 35 515 44
f 396 450 477
f 622 189 500
f 319 696 312
f 689 470 498
f 159 253 166
f 53 199 203
f 12 11 523
f 372 355 502
f 190 166 180
f 169 182 273
f 622 500 617
f 31 84 491
f 505 311 318
f 229 247 225
f 156 332 254
f 332 309 254
f 182 253 251
f 702 248 128
f 181 502 166
f 166 253 473
f 315 443 350
f 201 636 627
f 268 230 643
f 203 199 219
f 463 481 197
f 187 180 172
f 156 256 332
f 423 450 396
f 159 244 253
f 477 175 313
f 175 596 313
f 250 14 266
f 244 543 253
f 222 221 212
f 221 222 226
f 247 229 248
f 283 250 266
f 417 593 594
f 283 266 260
f 233 173 192
f 217 328 327
f 218 217 327
f 312 391 322
f 190 199 183
f 153 310 152
f 225 217 218
f 229 225 218
f 372 502 181
f 218 327 280
f 682 248 229
f 145 156 111
f 318 160 505
f 229 218 666
f 381 16 340
f 682 229 666
f 249 289 405
f 666 218 288
f 192 173 15
f 191 19 658
f 253 320 251
f 666 288 663
f 619 233 192
f 310 153 154
f 232 619 379
f 337 543 244
f 430 619 232
f 410 462 341
f 309 332 423
f 335 232 337
f 658 19 1
f 295 375 385
f 325 273 276
f 463 197 470
f 330 500 189
f 31 512 84
f 70 145 84
f 391 569 585
f 629 519 573
f 256 370 332
f 370 423 332
f 316 325 261
f 638 673 545
f 637 347 261
f 414 470 689
f 711 262 578
f 280 327 404
f 512 70 84
f 289 403 405
f 290 303 359
f 308 258 404
f 273 182 251
f 276 273 251
f 637 261 325
f 423 487 450
f 450 487 477
f 585 322 391
f 684 678 297
f 528 205 550
f 295 373 331
f 325 276 269
f 637 325 269
f 121 461 89
f 564 578 329
f 210 300 505
f 265 637 271
f 145 256 156
f 251 269 276
f 260 637 269
f 271 637 260
f 297 228 617
f 280 258 302
f 256 333 370
f 535 553 264
f 280 302 288
f 266 271 260
f 638 265 271
f 257 290 359
f 308 293 258
f 281 331 373
f 487 175 477
f 174 234 214
f 624 163 703
f 285 271 266
f 590 614 395
f 564 329 264
f 102 145 70
f 269 320 283
f 102 267 145
f 260 269 283
f 267 333 256
f 246 310 243
f 210 285 300
f 278 270 329
f 628 328 640
f 158 157 331
f 331 157 272
f 14 285 266
f 294 270 368
f 267 256 145
f 270 378 368
f 273 359 169
f 325 257 273
f 628 308 404
f 201 12 523
f 230 13 381
f 560 75 541
f 300 285 14
f 290 368 303
f 429 306 94
f 34 631 718
f 533 570 563
f 443 359 350
f 316 257 325
f 270 278 298
f 241 243 310
f 300 14 165
f 452 318 311
f 281 158 331
f 393 444 414
f 326 291 373
f 311 300 165
f 321 452 311
f 368 378 303
f 91 92 114
f 91 71 92
f 329 294 264
f 418 141 478
f 311 165 321
f 165 376 321
f 663 288 302
f 564 264 553
f 375 299 684
f 91 44 71
f 373 385 326
f 535 264 290
f 314 331 272
f 334 380 370
f 303 378 453
f 380 423 370
f 262 282 578
f 469 387 708
f 684 297 317
f 299 678 684
f 375 684 317
f 54 43 86
f 380 438 423
f 262 678 299
f 639 205 143
f 404 327 328
f 578 282 278
f 282 299 375
f 317 500 330
f 102 133 267
f 535 290 257
f 375 298 282
f 263 645 215
f 267 334 333
f 135 134 112
f 333 334 370
f 678 228 297
f 404 328 628
f 438 487 423
f 297 500 317
f 317 291 326
f 108 611 66
f 578 278 329
f 226 615 305
f 34 718 324
f 1 230 669
f 10 412 81
f 656 302 258
f 234 245 259
f 212 213 222
f 490 403 434
f 415 387 394
f 42 94 494
f 657 688 592
f 412 338 641
f 657 10 583
f 468 133 102
f 227 226 222
f 553 536 564
f 490 52 403
f 408 435 431
f 395 614 641
f 338 395 641
f 400 52 390
f 507 434 101
f 410 341 318
f 431 435 366
f 725 555 703
f 262 299 282
f 81 412 641
f 619 10 81
f 133 454 267
f 372 365 346
f 467 487 438
f 371 365 372
f 52 400 403
f 431 366 614
f 245 323 259
f 372 346 353
f 289 434 403
f 434 440 101
f 697 6 7
f 10 619 430
f 583 10 430
f 353 346 348
f 615 401 241
f 108 161 611
f 711 339 262
f 566 585 569
f 53 203 390
f 435 342 366
f 467 598 487
f 614 366 173
f 583 430 348
f 400 390 203
f 434 289 440
f 393 529 444
f 173 366 351
f 348 430 335
f 355 372 353
f 661 205 528
f 339 228 262
f 353 348 335
f 426 438 380
f 342 428 366
f 355 353 335
f 467 149 598
f 403 400 219
f 116 122 105
f 303 453 350
f 513 411 496
f 257 359 273
f 169 359 443
f 456 445 198
f 88 127 136
f 61 468 55
f 531 538 604
f 258 280 404
f 355 335 337
f 654 656 577
f 445 284 198
f 718 644 566
f 324 566 569
f 342 435 409
f 40 55 509
f 33 40 509
f 416 391 341
f 40 61 55
f 252 310 246
f 330 291 317
f 456 198 344
f 341 391 160
f 428 705 366
f 351 366 571
f 592 398 338
f 650 186 174
f 335 430 232
f 186 245 234
f 303 350 359
f 6 697 646
f 668 544 202
f 431 369 408
f 426 467 438
f 428 342 409
f 351 571 3
f 68 462 23
f 389 345 352
f 571 366 705
f 165 14 6
f 87 468 61
f 468 87 459
f 417 536 553
f 394 395 338
f 187 193 213
f 134 110 112
f 416 569 391
f 394 387 389
f 352 590 392
f 315 314 272
f 20 35 44
f 40 57 61
f 226 227 401
f 708 415 398
f 202 141 668
f 277 289 275
f 424 491 407
f 634 2 519
f 464 465 485
f 427 467 426
f 345 420 369
f 425 411 432
f 154 274 241
f 141 418 668
f 227 213 401
f 369 420 399
f 393 414 534
f 40 33 57
f 57 87 61
f 249 442 138
f 708 387 415
f 208 517 421
f 422 424 508
f 44 515 21
f 286 242 287
f 401 213 384
f 428 409 164
f 384 213 193
f 226 401 615
f 151 152 252
f 287 360 286
f 147 138 442
f 428 433 705
f 147 442 274
f 705 433 367
f 62 571 705
f 442 615 274
f 62 705 367
f 65 54 86
f 235 401 384
f 310 154 241
f 437 428 164
f 193 172 167
f 284 445 413
f 167 489 357
f 445 45 413
f 628 228 712
f 361 193 167
f 474 67 446
f 402 464 485
f 437 164 113
f 171 184 242
f 489 272 155
f 360 493 286
f 551 594 544
f 384 193 361
f 433 428 437
f 478 467 427
f 581 456 344
f 632 708 48
f 116 148 122
f 235 384 194
f 264 368 290
f 541 46 27
f 113 164 558
f 489 155 357
f 361 167 357
f 437 113 406
f 461 184 171
f 194 384 361
f 8 367 220
f 117 109 130
f 433 340 367
f 329 270 294
f 264 294 368
f 590 431 614
f 417 594 536
f 362 437 406
f 433 437 362
f 694 695 701
f 367 340 220
f 205 661 161
f 387 527 389
f 340 433 362
f 287 259 360
f 406 113 441
f 362 406 620
f 186 234 174
f 406 441 620
f 589 143 108
f 340 362 381
f 230 362 620
f 87 57 89
f 247 702 699
f 381 362 230
f 184 214 242
f 268 669 230
f 278 282 298
f 13 230 1
f 482 471 469
f 324 416 462
f 681 247 699
f 447 451 480
f 489 167 514
f 716 455 552
f 32 16 4
f 479 484 486
f 480 501 45
f 57 121 89
f 672 42 494
f 23 462 410
f 70 468 102
f 493 488 427
f 471 387 469
f 471 486 387
f 361 168 194
f 402 485 490
f 485 397 490
f 526 149 202
f 116 105 73
f 121 148 174
f 133 459 454
f 169 473 182
f 7 32 4
f 35 511 512
f 475 492 451
f 15 173 351
f 608 399 484
f 480 45 445
f 120 440 289
f 521 513 496
f 486 484 420
f 486 420 527
f 286 530 497
f 484 399 420
f 33 27 57
f 493 427 426
f 473 169 514
f 447 480 456
f 141 149 467
f 447 581 363
f 519 2 12
f 46 73 105
f 326 375 317
f 530 334 497
f 27 46 57
f 456 480 445
f 511 509 503
f 521 496 518
f 174 184 121
f 447 456 581
f 242 259 287
f 222 213 227
f 464 483 74
f 435 605 457
f 478 141 467
f 302 656 665
f 377 492 475
f 452 410 318
f 527 420 345
f 482 448 471
f 448 386 486
f 70 503 55
f 94 448 460
f 336 360 259
f 518 496 507
f 383 382 360
f 480 492 501
f 242 497 171
f 532 337 244
f 141 202 149
f 642 698 374
f 507 496 434
f 35 512 31
f 518 507 101
f 360 336 383
f 493 360 488
f 460 448 482
f 475 451 630
f 656 258 577
f 650 174 148
f 698 664 573
f 57 105 121
f 173 641 614
f 381 13 191
f 184 174 214
f 448 486 471
f 8 220 32
f 233 641 173
f 121 105 122
f 459 171 497
f 36 74 111
f 214 234 242
f 234 259 242
f 94 460 494
f 301 198 657
f 492 480 451
f 689 498 418
f 245 717 323
f 679 550 205
f 494 482 25
f 702 247 248
f 461 459 89
f 630 451 447
f 625 650 148
f 495 491 424
f 715 444 529
f 14 250 6
f 36 111 156
f 87 89 459
f 508 516 524
f 503 512 511
f 424 504 495
f 35 31 515
f 492 446 501
f 494 460 482
f 605 568 457
f 62 17 571
f 34 723 540
f 486 386 479
f 677 681 676
f 464 74 465
f 510 28 33
f 422 508 524
f 652 692 650
f 673 626 545
f 74 64 465
f 12 573 519
f 418 498 197
f 426 380 530
f 673 616 626
f 49 78 539
f 292 546 721
f 242 286 497
f 7 4 697
f 324 462 68
f 490 397 52
f 716 197 481
f 483 464 407
f 586 618 75
f 603 700 565
f 18 504 520
f 468 459 133
f 405 403 219
f 502 337 532
f 94 386 448
f 546 722 721
f 435 457 409
f 625 75 652
f 457 164 409
f 493 426 530
f 572 674 304
f 341 462 416
f 603 565 649
f 267 459 497
f 721 722 97
f 483 84 111
f 461 171 459
f 530 286 493
f 5 6 250
f 212 187 213
f 334 530 380
f 62 367 8
f 648 639 582
f 457 561 558
f 483 111 74
f 454 459 267
f 497 334 267
f 461 121 184
f 523 160 209
f 478 427 439
f 722 686 97
f 70 55 468
f 648 679 639
f 685 713 653
f 70 512 503
f 427 488 439
f 504 422 520
f 441 558 599
f 536 594 79
f 268 643 613
f 79 594 551
f 187 172 193
f 197 544 668
f 551 544 197
f 534 439 382
f 589 582 639
f 439 488 382
f 585 687 319
f 547 536 79
f 546 674 706
f 564 536 547
f 324 718 566
f 531 419 568
f 434 496 490
f 93 582 554
f 700 642 687
f 612 441 599
f 476 690 474
f 706 722 546
f 178 713 685
f 689 439 534
f 632 469 708
f 602 587 97
f 161 685 653
f 421 517 567
f 548 506 549
f 382 383 534
f 549 542 548
f 539 588 549
f 660 677 676
f 600 674 572
f 576 564 547
f 600 706 674
f 578 564 576
f 706 633 722
f 587 557 97
f 633 686 722
f 79 551 552
f 576 547 79
f 407 464 425
f 588 610 580
f 161 653 610
f 694 663 695
f 410 452 23
f 690 600 572
f 680 97 686
f 123 469 632
f 79 552 356
f 570 591 563
f 509 26 510
f 508 425 432
f 517 257 316
f 458 24 18
f 515 24 458
f 682 663 694
f 545 714 579
f 487 596 175
f 567 596 598
f 561 419 531
f 711 578 576
f 576 79 356
f 381 191 16
f 419 561 457
f 690 472 600
f 118 576 356
f 606 321 376
f 586 75 560
f 574 604 538
f 347 597 517
f 720 393 710
f 508 432 516
f 356 455 118
f 605 452 321
f 724 680 686
f 356 552 455
f 680 96 97
f 584 313 579
f 408 369 559
f 452 605 591
f 613 604 268
f 624 576 118
f 322 585 319
f 597 265 545
f 587 608 479
f 621 633 706
f 568 419 457
f 155 168 357
f 306 674 546
f 633 724 686
f 605 132 591
f 265 597 347
f 261 517 316
f 605 609 132
f 520 422 524
f 621 706 600
f 587 479 557
f 724 96 680
f 389 527 345
f 567 579 596
f 689 418 478
f 31 24 515
f 573 22 629
f 608 484 479
f 563 670 533
f 597 545 579
f 132 559 608
f 452 591 570
f 97 96 602
f 570 533 723
f 388 415 394
f 597 579 567
f 591 608 587
f 573 664 22
f 621 607 633
f 23 452 570
f 515 458 21
f 593 208 202
f 306 546 292
f 591 587 602
f 398 415 388
f 441 612 643
f 606 605 321
f 249 405 305
f 132 608 591
f 723 23 570
f 422 504 424
f 347 517 261
f 708 398 48
f 531 568 538
f 517 597 567
f 604 561 531
f 563 591 602
f 692 719 720
f 652 693 692
f 313 600 472
f 559 609 408
f 411 464 402
f 15 5 250
f 602 96 563
f 198 284 657
f 537 555 725
f 308 555 293
f 559 399 608
f 197 716 552
f 725 661 537
f 562 529 720
f 313 621 600
f 725 685 661
f 537 661 528
f 96 724 563
f 408 609 605
f 610 653 693
f 700 631 565
f 202 208 421
f 537 550 555
f 644 718 631
f 550 537 528
f 555 550 293
f 606 568 605
f 210 2 638
f 293 550 556
f 394 392 395
f 258 293 556
f 550 679 556
f 258 556 577
f 268 604 574
f 268 574 669
f 653 719 693
f 84 145 111
f 248 682 694
f 504 18 30
f 499 376 165
f 612 599 561
f 351 3 15
f 607 714 633
f 624 118 163
f 562 709 715
f 667 654 601
f 574 538 646
f 307 703 555
f 93 695 667
f 675 676 683
f 582 667 601
f 724 626 670
f 626 714 545
f 695 665 667
f 687 644 631
f 601 654 647
f 93 667 582
f 313 607 621
f 696 9 312
f 319 687 642
f 633 714 724
f 148 116 625
f 374 627 636
f 529 393 720
f 624 703 307
f 363 581 364
f 392 389 352
f 655 651 225
f 665 654 667
f 664 603 22
f 626 724 714
f 172 514 167
f 9 696 691
f 715 481 444
f 669 574 635
f 670 563 724
f 669 635 1
f 306 304 674
f 313 584 607
f 149 526 421
f 660 655 225
f 131 699 702
f 715 716 481
f 618 610 693
f 576 624 711
f 703 707 178
f 146 142 139
f 703 163 707
f 17 32 7
f 660 225 677
f 683 676 704
f 607 579 714
f 646 697 635
f 542 588 580
f 676 681 699
f 703 178 725
f 720 710 717
f 623 628 640
f 709 671 715
f 658 1 635
f 585 566 644
f 207 622 263
f 617 228 623
f 263 622 645
f 651 328 217
f 407 425 508
f 424 407 508
f 499 165 6
f 704 699 131
f 704 676 699
f 611 588 539
f 625 652 650
f 713 178 707
f 307 711 624
f 402 490 411
f 337 232 543
f 584 579 607
f 314 295 331
f 638 2 673
f 466 485 465
f 41 542 541
f 215 207 263
f 645 640 651
f 128 131 702
f 314 315 350
f 272 157 155
f 709 707 671
f 590 352 369
f 151 255 150
f 720 245 186
f 581 344 354
f 709 562 719
f 496 411 490
f 645 651 655
f 26 511 35
f 651 640 328
f 344 348 346
f 364 581 354
f 627 698 573
f 27 41 541
f 677 225 681
f 225 651 217
f 648 647 679
f 301 657 583
f 392 590 395
f 640 645 623
f 489 315 272
f 549 588 542
f 161 610 611
f 12 201 573
f 49 539 506
f 712 307 555
f 629 22 603
f 707 163 455
f 360 382 488
f 637 265 347
f 592 338 412
f 658 635 697
f 622 617 623
f 10 592 412
f 78 554 66
f 622 207 189
f 696 642 374
f 559 369 399
f 555 308 628
f 653 713 719
f 453 314 350
f 658 697 4
f 510 33 509
f 3 5 15
f 491 483 407
f 215 655 660
f 6 646 499
f 717 245 720
f 657 592 10
f 312 322 319
f 650 720 186
f 691 696 374
f 623 645 622
f 646 538 499
f 255 683 150
f 197 668 418
f 16 220 340
f 295 385 373
f 683 704 150
f 642 696 319
f 425 464 411
f 691 374 636
f 592 688 398
f 617 500 297
f 215 645 655
f 124 248 694
f 205 639 679
f 533 670 616
f 616 670 626
f 106 86 88
f 18 520 349
f 635 574 646
f 198 301 344
f 191 658 16
f 486 527 387
f 307 339 711
f 625 116 75
f 689 478 439
f 474 446 476
f 713 709 719
f 629 603 649
f 470 197 498
f 644 687 585
f 265 638 545
f 284 688 657
f 725 178 685
f 611 610 588
f 491 495 30
f 665 656 654
f 661 685 161
f 664 698 642
f 457 558 164
f 664 700 603
f 579 313 596
f 66 611 539
f 634 629 575
f 693 719 692
f 693 652 618
f 673 634 575
f 671 455 715
f 575 629 649
f 201 627 573
f 580 618 586
f 601 648 582
f 648 601 647
f 642 700 664
f 717 710 323
f 671 707 455
f 649 565 540
f 649 540 595
f 580 586 560
f 575 616 673
f 616 723 533
f 542 580 560
f 34 68 723
f 649 595 575
f 589 639 143
f 582 589 554
f 623 228 628
f 565 34 540
f 616 575 595
f 713 707 709
f 719 562 720
f 616 540 723
f 41 548 542
f 307 712 339
f 694 701 124
f 663 665 695
f 580 610 618
f 650 692 720
f 514 169 443
f 191 13 19
f 539 549 506
f 562 715 529
f 455 716 715
f 631 34 565
f 33 28 27
f 595 540 616
f 687 631 700
f 541 542 560
f 476 472 690
f 446 436 476
f 75 618 652
f 241 401 235
f 701 695 93
